<svg version="1.1" id="Layer_1" xmlns="http://www.w3.org/2000/svg" xmlns:xlink="http://www.w3.org/1999/xlink" x="0px" y="0px"
	 width="100%" viewBox="0 0 481 518" enable-background="new 0 0 481 518" xml:space="preserve">
<path fill="#000000" opacity="1.000000" stroke="none" 
	d="
M482.000000,189.000000 
	C482.000000,299.333313 482.000000,409.166626 482.000000,519.000000 
	C321.666718,519.000000 161.333466,519.000000 1.000145,519.000000 
	C1.000097,346.333435 1.000097,173.666885 1.000048,1.000238 
	C161.333191,1.000158 321.666382,1.000158 481.999786,1.000079 
	C482.000000,63.500000 482.000000,126.000000 482.000000,189.000000 
M427.944153,138.450470 
	C427.632355,138.272552 427.320526,138.094620 427.008698,137.991821 
	C427.008698,137.991821 427.083771,137.990280 426.943451,137.450134 
	C426.631744,137.271957 426.320007,137.093796 426.007721,136.991867 
	C426.007721,136.991867 426.083954,136.990997 425.942627,136.451797 
	C425.631012,136.274780 425.319427,136.097748 425.015442,135.987991 
	C425.015442,135.987991 425.075745,135.957184 424.845978,135.336639 
	C423.906219,134.862045 422.966431,134.387451 422.012360,133.983521 
	C422.012360,133.983521 422.083496,133.995224 421.938385,133.457291 
	C421.628021,133.276871 421.317688,133.096466 421.019012,132.984222 
	C421.019012,132.984222 421.080963,132.953476 420.832214,132.305984 
	C418.167419,130.582016 415.502655,128.858047 412.304077,126.815117 
	C411.568573,126.535721 410.833069,126.256325 409.827789,125.324425 
	C406.229584,123.183075 402.631409,121.041725 399.015259,118.969429 
	C399.015259,118.969429 399.085571,118.957352 398.756836,118.287460 
	C397.532837,118.179771 396.308807,118.072075 395.022705,117.198868 
	C388.632294,113.597893 382.209564,110.052757 375.860504,106.380264 
	C369.492462,102.696762 363.197906,98.886253 356.918304,94.439178 
	C356.277496,94.263405 355.636719,94.087624 355.018158,93.981979 
	C355.018158,93.981979 355.087250,93.956604 354.831482,93.293152 
	C352.558411,92.166809 350.285370,91.040474 348.008575,89.983688 
	C348.008575,89.983688 348.077911,89.977081 347.816925,89.302704 
	C345.885345,88.593544 343.953796,87.884384 341.382446,86.880234 
	C337.834564,84.335136 334.489075,81.426773 330.699615,79.315216 
	C320.598785,73.686852 310.306946,68.401329 299.829651,62.390087 
	C299.215546,62.227005 298.601471,62.063923 298.007751,61.985737 
	C298.007751,61.985737 298.092133,61.963192 297.829956,61.355816 
	C296.898102,60.866322 295.966248,60.376827 295.034271,59.966610 
	C295.034271,59.966610 295.113281,59.960167 295.020050,59.214550 
	C285.349579,53.487839 275.685913,47.749489 265.989349,42.067265 
	C265.481140,41.769447 264.693451,41.948513 264.012115,41.970867 
	C264.012115,41.970867 264.080139,41.984932 263.890930,41.400536 
	C263.516144,41.316944 263.141357,41.233349 262.523254,41.024170 
	C262.523254,41.024170 262.250427,41.047192 261.907043,40.418884 
	C259.987213,39.256084 258.067352,38.093285 255.764038,36.241455 
	C246.637848,33.499249 237.545639,31.901857 228.432861,36.990738 
	C228.432861,36.990738 228.246887,37.121586 227.613510,37.060490 
	C227.468918,37.401485 227.324326,37.742481 226.784424,38.686897 
	C218.514679,43.424553 210.244949,48.162212 201.216537,52.999462 
	C197.779510,54.969170 194.342499,56.938877 190.202072,58.961254 
	C189.102493,59.606457 188.002899,60.251663 186.174210,60.982533 
	C177.730698,65.981186 169.287186,70.979836 160.224823,76.242111 
	C158.147003,77.545044 156.069183,78.847969 153.265610,80.254822 
	C148.510788,82.900620 143.755966,85.546417 138.285385,88.269653 
	C127.782028,94.400612 117.284546,100.541679 106.771774,106.656448 
	C103.577148,108.514618 100.340317,110.300224 96.375679,112.095650 
	C93.404053,113.719688 90.364868,115.237129 87.510429,117.046082 
	C86.834671,117.474327 86.779259,118.881424 86.438484,119.838249 
	C87.248009,120.111366 88.217384,120.817192 88.840904,120.586845 
	C92.663437,119.174652 96.407661,117.550507 100.963211,115.980957 
	C128.702698,107.568916 156.695816,105.947655 185.796692,112.991585 
	C195.050980,116.009789 204.327255,118.962845 213.549652,122.075508 
	C217.738129,123.489159 221.819885,125.219009 226.602386,127.122330 
	C228.499130,128.324203 230.351074,129.604752 232.300461,130.714127 
	C240.154236,135.183624 248.038116,139.600235 256.183899,144.681107 
	C257.043854,145.445343 257.801697,146.389023 258.779785,146.945602 
	C267.158936,151.713669 275.577972,156.411652 284.272552,161.762177 
	C286.027466,162.861694 287.727905,164.062210 289.546692,165.043350 
	C297.673370,169.427277 305.833832,173.748581 313.983429,178.021378 
	C313.983429,178.021378 313.912842,178.030197 314.133423,178.628326 
	C315.021759,179.024628 315.910095,179.420929 317.495789,180.084076 
	C324.958038,184.068283 332.420319,188.052505 339.986786,192.788452 
	C342.376923,194.537582 344.767059,196.286713 347.031982,198.961288 
	C347.078949,213.318466 347.125916,227.675659 347.012817,242.952698 
	C347.056580,255.648239 347.100342,268.343781 346.982758,281.954803 
	C347.032990,292.300476 347.083252,302.646149 346.975525,313.707886 
	C346.403015,314.438812 345.971771,315.385681 345.235962,315.866943 
	C338.490601,320.278992 331.692352,324.610199 324.981110,328.970795 
	C324.981110,328.970795 324.975006,328.899200 324.220612,328.994995 
	C318.205017,332.660797 312.189453,336.326630 305.838867,340.634338 
	C298.258606,344.880402 290.675262,349.120911 283.100189,353.376160 
	C281.051422,354.527039 279.027771,355.722565 276.207886,357.002197 
	C275.542725,356.999542 274.745697,356.752838 274.231964,357.030396 
	C264.913757,362.065338 255.560593,367.043060 246.376694,372.314880 
	C243.257538,374.105347 243.260559,377.654724 246.169037,379.548065 
	C249.663559,381.822876 253.385880,383.747742 257.650024,386.160187 
	C265.735901,391.422058 274.200043,395.773621 284.235046,397.768555 
	C287.132385,398.540039 290.029724,399.311523 293.263977,400.811951 
	C295.814697,401.145996 298.365387,401.480042 301.763885,401.978638 
	C307.105804,402.670135 312.460297,403.277161 317.787354,404.068726 
	C334.628448,406.571259 351.139984,404.367432 367.383423,400.122955 
	C375.748535,397.937103 383.818420,394.621246 392.756500,391.934662 
	C396.763092,389.846649 400.658478,387.499329 404.799042,385.723724 
	C413.915192,381.814484 421.849487,376.347870 428.906647,368.745453 
	C429.599365,367.965179 430.292084,367.184906 431.618164,365.986450 
	C432.084259,365.155029 432.521942,364.306152 433.020905,363.494965 
	C437.106628,356.852753 441.408600,350.292053 440.996246,341.612854 
	C440.996246,341.612854 441.008118,341.233948 441.558197,341.026398 
	C441.677795,340.691711 441.797394,340.356995 441.999664,339.085419 
	C442.003815,282.858795 442.017303,226.632172 441.970551,170.405609 
	C441.969025,168.559448 441.354126,166.713806 440.995117,164.428772 
	C440.995117,164.428772 440.849335,164.013260 440.985596,163.176529 
	C440.767059,156.841354 438.444397,151.409622 433.748474,146.275238 
	C432.111603,144.218170 430.474701,142.161102 428.940094,139.530991 
	C428.632690,139.325424 428.325287,139.119858 428.011902,138.987030 
	C428.011902,138.987030 428.084778,138.990601 427.944153,138.450470 
M170.622833,119.317932 
	C161.958008,118.861275 153.291779,118.040077 144.628860,118.073830 
	C138.676056,118.097023 132.727844,119.307083 126.208153,120.000366 
	C125.750542,120.297943 125.292931,120.595520 124.018890,120.958015 
	C114.131393,123.385719 103.899544,124.899887 94.440865,128.465210 
	C81.735153,133.254501 69.424843,139.526520 59.579853,149.140106 
	C51.103184,157.417542 44.577396,167.134094 45.037560,180.706848 
	C45.028179,181.782867 45.018799,182.858902 44.321980,184.457336 
	C44.214020,185.608841 44.012001,186.760315 44.011616,187.911850 
	C43.994003,240.794159 43.987583,293.676483 44.032875,346.558746 
	C44.033897,347.751709 44.645012,348.944183 45.004810,350.818237 
	C45.701500,353.889313 46.398186,356.960358 46.807079,360.607056 
	C46.797710,361.229492 46.625206,361.903381 46.802841,362.466858 
	C51.224213,376.491943 61.170246,385.970825 73.316818,393.114746 
	C95.364548,406.081818 117.720749,418.524475 140.389496,431.689209 
	C148.184998,435.838898 155.980499,439.988617 163.864929,444.148682 
	C163.864929,444.148682 163.873672,444.237793 163.920258,444.873138 
	C164.597183,445.285126 165.274094,445.697144 166.390671,446.620483 
	C174.809586,451.477234 183.220535,456.347870 191.649261,461.187561 
	C204.375687,468.494934 217.114517,475.780731 230.319946,483.637878 
	C232.463577,484.440125 234.552856,485.462921 236.760147,486.006836 
	C246.912857,488.508636 255.285477,484.131592 263.678864,479.203064 
	C284.549500,466.947784 305.584045,454.971893 326.526215,442.837982 
	C338.151337,436.102478 349.692200,429.221191 361.333649,422.514221 
	C366.298706,419.653717 371.573517,417.311066 376.427643,414.284210 
	C380.178528,411.945251 383.493256,408.906891 387.709503,405.979523 
	C392.703308,406.617249 398.255402,403.487793 399.869080,398.561127 
	C385.473114,403.412750 371.478271,408.129211 357.211151,412.754578 
	C357.211151,412.754578 356.975555,412.918671 356.069763,412.948212 
	C343.714813,413.640045 331.359894,414.331879 318.439850,414.401245 
	C306.576141,415.166260 295.103729,412.400513 284.209686,408.587585 
	C272.649536,404.541565 261.618317,398.803223 250.712769,393.119568 
	C240.136688,387.607635 230.013077,381.227478 219.691696,375.226959 
	C213.676041,371.729645 207.717545,368.129486 201.634079,364.754486 
	C193.575058,360.283478 185.332626,356.139069 177.324585,351.580994 
	C164.835983,344.472626 152.478134,337.134552 139.716248,329.416382 
	C139.168961,329.198395 138.621674,328.980408 138.061234,328.372345 
	C138.061234,328.372345 137.947266,327.999023 138.035400,327.060791 
	C138.003983,298.074036 137.972565,269.087311 138.018066,239.153259 
	C138.032608,230.321564 138.525726,221.455780 137.899567,212.669739 
	C137.455032,206.432053 139.505737,202.712494 145.163773,200.543762 
	C147.130081,199.790085 148.976105,198.689453 150.811157,197.632812 
	C155.999268,194.645462 161.143829,191.582565 166.322693,188.579025 
	C176.267227,182.811554 186.223618,177.064468 196.897202,171.177689 
	C197.532898,171.031494 198.254410,171.031860 198.791519,170.717316 
	C208.141281,165.241943 217.503113,159.785599 226.783783,154.194733 
	C230.625595,151.880356 234.283020,149.259933 238.777847,146.278931 
	C234.957840,144.366821 232.043961,142.924835 229.144730,141.453995 
	C220.429581,137.032593 211.720123,132.599960 202.241791,128.055771 
	C201.157562,127.691582 200.091248,127.257584 198.986298,126.974197 
	C189.719147,124.597443 180.444916,122.248322 171.092880,119.898338 
	C171.092880,119.898338 171.076202,119.976868 170.622833,119.317932 
z"/>
<path fill="#0B425C" opacity="1.000000" stroke="none" 
	d="
M45.121319,179.900848 
	C44.577396,167.134094 51.103184,157.417542 59.579853,149.140106 
	C69.424843,139.526520 81.735153,133.254501 94.440865,128.465210 
	C103.899544,124.899887 114.131393,123.385719 124.796539,121.097153 
	C129.284927,122.001450 133.002884,123.439766 136.704971,123.399956 
	C146.139572,123.298485 155.567078,122.536911 165.056427,122.385086 
	C170.559311,126.318398 171.945190,131.490387 171.011780,137.623947 
	C170.331558,142.093765 171.524521,145.537643 176.452713,146.498001 
	C175.048294,154.160782 168.359253,159.993546 161.236801,160.001587 
	C158.573761,160.004593 155.811249,159.602188 153.284683,160.195786 
	C151.745361,160.557449 150.569595,162.466599 149.230530,163.680649 
	C150.688904,164.779434 152.030228,166.135406 153.652603,166.873856 
	C154.529114,167.272827 155.924301,166.743942 157.019608,166.414566 
	C162.250870,164.841507 167.367554,163.522125 172.895416,165.658386 
	C175.541336,166.680893 178.955841,165.874695 178.331299,162.231430 
	C177.628799,158.133484 179.881317,157.602737 182.570068,157.145126 
	C187.465973,156.311844 192.397476,155.685806 197.316956,154.993347 
	C202.387680,154.279587 204.622925,150.688889 203.435272,145.773376 
	C202.964096,143.823227 203.357925,141.664078 203.357925,139.331802 
	C202.485703,138.938675 200.918945,138.232513 199.352203,137.526352 
	C199.478561,137.016556 199.604935,136.506744 199.731293,135.996948 
	C201.488953,135.996948 203.246613,135.996948 205.253189,135.996887 
	C205.502106,135.996841 206.000031,135.999390 206.174850,136.291931 
	C207.900864,136.720581 209.452057,136.856705 211.252563,136.994537 
	C211.501877,136.996246 212.000458,137.002441 212.016968,137.368805 
	C215.701477,145.210159 214.231415,148.581421 206.199463,153.306213 
	C203.828400,154.700989 202.212540,157.437820 200.446350,159.711685 
	C200.271484,159.936783 201.469482,161.228256 201.967407,162.371948 
	C200.606079,163.483765 199.307632,164.248459 197.758209,164.775360 
	C195.004547,165.360443 192.501862,166.183289 189.656326,167.097275 
	C188.881058,168.458496 188.448654,169.728577 187.669739,171.051025 
	C181.757645,173.764572 176.286301,176.653076 170.595505,179.012253 
	C166.340820,180.776093 160.983124,180.612534 159.578156,186.528564 
	C159.451523,187.061813 158.717453,187.521454 158.173950,187.874222 
	C152.439957,191.595749 146.986786,195.933441 140.845108,198.785217 
	C135.941208,201.062271 135.616714,204.681213 135.469757,208.768219 
	C135.205643,216.114563 135.000427,223.474762 135.166870,230.820190 
	C135.259109,234.891037 136.153931,238.943695 136.750656,243.376785 
	C136.769928,244.500000 136.725540,245.250992 136.388763,246.105255 
	C136.289246,247.471146 136.482117,248.733765 136.738815,250.393753 
	C136.751099,251.860748 136.699554,252.930374 136.305923,254.161957 
	C135.646423,255.387329 135.055344,256.449951 135.052246,257.514282 
	C134.996353,276.762360 134.980637,296.010803 135.082031,315.258514 
	C135.088623,316.510101 136.111404,317.756348 136.725006,319.440735 
	C137.174774,322.583954 137.561020,325.291473 137.947266,327.999023 
	C137.947266,327.999023 138.061234,328.372345 138.041672,328.874390 
	C138.012253,329.580750 138.002396,329.785034 137.858902,330.091614 
	C137.817566,330.460236 137.909866,330.726532 138.001099,330.996277 
	C138.000031,330.999695 138.007996,330.997253 138.060822,331.348938 
	C139.814423,333.805817 141.095169,336.685791 143.291656,337.876648 
	C151.088852,342.103912 159.360748,345.461029 167.121780,349.747162 
	C171.057266,351.920593 174.284622,355.376282 178.852478,359.079437 
	C185.556686,358.705963 189.939484,365.954346 195.828079,369.948883 
	C200.066650,372.824036 203.820938,375.364899 209.012314,375.523926 
	C210.491058,375.569244 212.197647,376.093475 213.360931,376.976318 
	C216.381607,379.268677 219.053024,382.021210 222.073502,384.313873 
	C223.779800,385.609009 225.804138,386.900604 227.850021,387.262695 
	C238.054962,389.068756 247.100952,393.689392 254.512833,400.426971 
	C261.003693,406.327362 267.857819,409.172302 276.345551,409.042511 
	C277.620636,409.022980 279.109985,409.215698 280.151703,409.867340 
	C290.251160,416.184845 301.858765,415.434204 313.073914,417.378418 
	C320.347443,422.268524 328.286926,421.092224 336.068542,420.626953 
	C337.071228,420.566986 337.971069,418.787384 339.043610,417.622437 
	C339.374786,417.219238 339.623138,417.066589 340.322266,416.995667 
	C344.225037,416.638733 347.719177,416.268677 351.500427,415.892761 
	C352.169342,415.912292 352.551147,415.937744 352.992096,416.281982 
	C354.364349,417.383759 355.677490,418.166779 356.943909,419.304718 
	C355.240875,421.116180 353.809631,423.152527 351.878876,423.901947 
	C348.433380,425.239380 343.194519,424.640167 341.401611,426.946564 
	C338.429535,430.769775 334.814148,431.602844 330.985870,433.476776 
	C322.897949,437.435760 315.547424,442.897003 307.861145,447.688599 
	C307.189178,448.107544 306.231720,448.037628 305.474884,448.356323 
	C300.224152,450.567505 293.255188,450.286530 291.665100,457.895203 
	C291.548218,458.454651 290.383789,458.794769 289.706909,459.237701 
	C287.099731,460.943909 284.565430,462.777039 281.867462,464.324982 
	C278.467621,466.275665 274.922791,469.504791 271.460876,469.478729 
	C265.358032,469.432800 261.077881,471.484039 256.800659,475.445831 
	C252.874649,479.082336 248.763916,483.030060 242.464691,482.080719 
	C238.681274,481.510529 234.837753,481.339172 230.851257,480.687134 
	C228.713989,477.539673 227.460037,473.834747 222.919098,473.662354 
	C220.652496,470.338928 217.934570,468.427582 213.794342,468.881714 
	C213.330948,468.548279 213.130814,468.297211 212.912903,467.660889 
	C211.226471,466.550171 209.615189,465.778900 207.619507,465.001007 
	C204.918823,463.208832 202.602539,461.423279 199.950989,459.379303 
	C199.005234,459.485382 197.444443,459.660431 195.262482,459.905151 
	C196.262512,458.148407 196.903870,457.021729 197.545242,455.895050 
	C192.802444,458.726776 190.300034,456.621155 188.152664,452.633392 
	C187.552567,451.519012 185.964142,450.696259 184.655045,450.247864 
	C180.150284,448.704834 175.568466,447.386719 170.948639,445.677826 
	C170.254227,444.917175 169.627213,444.461639 168.670410,444.000092 
	C167.900909,443.988403 167.461182,443.982697 166.988129,443.595184 
	C164.779297,441.858673 162.620605,440.476044 160.425140,439.154510 
	C153.516861,434.996063 147.654770,428.827423 138.888123,427.776886 
	C138.554291,427.306396 138.302231,427.101807 137.991425,426.587769 
	C135.704147,423.498260 133.773682,420.340942 131.051544,418.181854 
	C128.645691,416.273682 125.412659,415.319122 122.426910,414.283600 
	C121.480919,413.955505 120.155342,414.721893 118.689529,414.843140 
	C114.580872,412.465729 110.786163,410.232605 106.933159,407.691650 
	C106.250511,406.924225 105.626160,406.464661 104.631805,405.999542 
	C103.521805,405.981323 102.781822,405.968628 102.024857,405.576569 
	C101.263069,404.114685 100.741653,402.716949 99.735176,402.003662 
	C95.105988,398.722870 89.893524,396.122528 85.754189,392.334137 
	C81.788460,388.704712 82.255974,388.193878 79.661438,392.916077 
	C77.895126,392.209259 76.462753,391.577454 74.976700,390.634460 
	C74.574387,389.347931 74.225761,388.372559 73.739807,387.013031 
	C75.593849,387.211853 76.951088,387.357391 78.308334,387.502930 
	C76.041161,385.512268 73.492851,384.423615 70.903206,383.444275 
	C70.811478,383.409607 70.309929,384.458618 69.639496,384.990173 
	C67.516151,383.985260 65.752708,382.992706 63.977783,381.643494 
	C62.643768,380.193634 61.321247,379.100494 59.766598,377.775879 
	C58.350121,375.697418 57.165771,373.850403 55.935997,371.665314 
	C54.603180,370.208771 53.315792,369.090363 52.024818,367.600342 
	C52.012440,366.485565 52.003639,365.742401 51.976414,364.612305 
	C50.465668,358.442352 46.835068,352.974182 49.349529,346.552277 
	C49.423176,346.364166 47.849865,345.531219 47.039555,344.530365 
	C47.034653,288.802582 47.034653,233.543350 47.034653,177.244843 
	C45.889088,178.835068 45.505203,179.367966 45.121319,179.900848 
z"/>
<path fill="#0C4159" opacity="1.000000" stroke="none" 
	d="
M205.004272,135.996948 
	C203.246613,135.996948 201.488953,135.996948 199.731293,135.996948 
	C199.604935,136.506744 199.478561,137.016556 199.352203,137.526352 
	C200.918945,138.232513 202.485703,138.938675 203.357925,139.331802 
	C203.357925,141.664078 202.964096,143.823227 203.435272,145.773376 
	C204.622925,150.688889 202.387680,154.279587 197.316956,154.993347 
	C192.397476,155.685806 187.465973,156.311844 182.570068,157.145126 
	C179.881317,157.602737 177.628799,158.133484 178.331299,162.231430 
	C178.955841,165.874695 175.541336,166.680893 172.895416,165.658386 
	C167.367554,163.522125 162.250870,164.841507 157.019608,166.414566 
	C155.924301,166.743942 154.529114,167.272827 153.652603,166.873856 
	C152.030228,166.135406 150.688904,164.779434 149.230530,163.680649 
	C150.569595,162.466599 151.745361,160.557449 153.284683,160.195786 
	C155.811249,159.602188 158.573761,160.004593 161.236801,160.001587 
	C168.359253,159.993546 175.048294,154.160782 176.452713,146.498001 
	C171.524521,145.537643 170.331558,142.093765 171.011780,137.623947 
	C171.945190,131.490387 170.559311,126.318398 165.466751,122.373093 
	C167.602982,121.307281 169.387894,120.599075 171.172806,119.890869 
	C180.444916,122.248322 189.719147,124.597443 198.986298,126.974197 
	C200.091248,127.257584 201.157562,127.691582 202.638123,128.477463 
	C203.691071,131.265091 204.347672,133.631012 205.004272,135.996948 
z"/>
<path fill="#153E51" opacity="1.000000" stroke="none" 
	d="
M312.962616,417.033905 
	C301.858765,415.434204 290.251160,416.184845 280.151703,409.867340 
	C279.109985,409.215698 277.620636,409.022980 276.345551,409.042511 
	C267.857819,409.172302 261.003693,406.327362 254.512833,400.426971 
	C247.100952,393.689392 238.054962,389.068756 227.850021,387.262695 
	C225.804138,386.900604 223.779800,385.609009 222.073502,384.313873 
	C219.053024,382.021210 216.381607,379.268677 213.360931,376.976318 
	C212.197647,376.093475 210.491058,375.569244 209.012314,375.523926 
	C203.820938,375.364899 200.066650,372.824036 195.828079,369.948883 
	C189.939484,365.954346 185.556686,358.705963 178.852478,359.079437 
	C174.284622,355.376282 171.057266,351.920593 167.121780,349.747162 
	C159.360748,345.461029 151.088852,342.103912 143.291656,337.876648 
	C141.095169,336.685791 139.814423,333.805817 138.362610,331.307190 
	C139.095978,330.573792 139.580429,330.233795 140.064865,329.893829 
	C152.478134,337.134552 164.835983,344.472626 177.324585,351.580994 
	C185.332626,356.139069 193.575058,360.283478 201.634079,364.754486 
	C207.717545,368.129486 213.676041,371.729645 219.691696,375.226959 
	C230.013077,381.227478 240.136688,387.607635 250.712769,393.119568 
	C261.618317,398.803223 272.649536,404.541565 284.209686,408.587585 
	C295.103729,412.400513 306.576141,415.166260 318.759979,414.907593 
	C319.080109,415.413971 319.119568,415.809753 318.831665,416.092010 
	C316.683380,416.594147 314.822998,416.814026 312.962616,417.033905 
z"/>
<path fill="#1D4052" opacity="1.000000" stroke="none" 
	d="
M231.021255,480.988525 
	C234.837753,481.339172 238.681274,481.510529 242.464691,482.080719 
	C248.763916,483.030060 252.874649,479.082336 256.800659,475.445831 
	C261.077881,471.484039 265.358032,469.432800 271.460876,469.478729 
	C274.922791,469.504791 278.467621,466.275665 281.867462,464.324982 
	C284.565430,462.777039 287.099731,460.943909 289.706909,459.237701 
	C290.383789,458.794769 291.548218,458.454651 291.665100,457.895203 
	C293.255188,450.286530 300.224152,450.567505 305.474884,448.356323 
	C306.231720,448.037628 307.189178,448.107544 307.861145,447.688599 
	C315.547424,442.897003 322.897949,437.435760 330.985870,433.476776 
	C334.814148,431.602844 338.429535,430.769775 341.401611,426.946564 
	C343.194519,424.640167 348.433380,425.239380 351.878876,423.901947 
	C353.809631,423.152527 355.240875,421.116180 356.945374,418.917328 
	C356.989166,417.392456 356.984802,416.609894 356.967712,415.464172 
	C356.961853,414.373566 356.968689,413.646118 356.975555,412.918671 
	C356.975555,412.918671 357.211151,412.754578 357.747437,412.803772 
	C366.113983,410.953766 373.940430,409.038452 381.777527,407.167847 
	C383.499542,406.756866 385.259460,406.504791 387.001892,406.179504 
	C383.493256,408.906891 380.178528,411.945251 376.427643,414.284210 
	C371.573517,417.311066 366.298706,419.653717 361.333649,422.514221 
	C349.692200,429.221191 338.151337,436.102478 326.526215,442.837982 
	C305.584045,454.971893 284.549500,466.947784 263.678864,479.203064 
	C255.285477,484.131592 246.912857,488.508636 236.760147,486.006836 
	C234.552856,485.462921 232.463577,484.440125 230.328476,483.162537 
	C230.565094,482.121002 230.793167,481.554779 231.021255,480.988525 
z"/>
<path fill="#DDAB22" opacity="1.000000" stroke="none" 
	d="
M300.091034,62.979523 
	C310.306946,68.401329 320.598785,73.686852 330.699615,79.315216 
	C334.489075,81.426773 337.834564,84.335136 341.888428,87.311249 
	C344.288940,88.487206 346.183411,89.232140 348.077911,89.977081 
	C348.077911,89.977081 348.008575,89.983688 348.080231,90.294678 
	C350.463684,91.722641 352.775452,92.839615 355.087250,93.956604 
	C355.087250,93.956604 355.018158,93.981979 355.155182,94.201828 
	C355.818512,94.658257 356.344818,94.894829 356.871124,95.131393 
	C363.197906,98.886253 369.492462,102.696762 375.860504,106.380264 
	C382.209564,110.052757 388.632294,113.597893 395.078308,117.794815 
	C395.133942,118.390762 395.181152,118.818878 395.125000,118.875046 
	C395.068817,118.931206 394.956238,119.043304 394.550293,119.007988 
	C387.478302,118.863625 382.109467,116.277443 378.216827,110.754562 
	C377.764404,110.112640 376.964783,109.654068 376.240143,109.274689 
	C367.822479,104.867844 359.634766,99.890518 350.877960,96.305504 
	C344.252014,93.592865 339.564606,87.579079 332.242279,86.275932 
	C331.321320,86.112022 330.728760,84.271217 329.920380,83.258148 
	C329.113373,82.246780 328.417664,80.859215 327.344452,80.392799 
	C318.085999,76.369019 308.736053,72.556305 299.460083,68.571846 
	C297.973175,67.933151 296.380371,67.015556 295.421570,65.774803 
	C292.906982,62.520798 289.972626,60.447281 285.926544,59.120884 
	C283.537170,58.337601 281.950226,55.106724 280.365295,52.988823 
	C285.523193,55.320793 290.318237,57.640484 295.113281,59.960171 
	C295.113281,59.960167 295.034271,59.966610 295.093079,60.276848 
	C296.131989,61.045784 297.112061,61.504486 298.092133,61.963188 
	C298.092133,61.963192 298.007751,61.985737 298.188171,62.188713 
	C298.942749,62.587639 299.516876,62.783585 300.091034,62.979523 
z"/>
<path fill="#1D4052" opacity="1.000000" stroke="none" 
	d="
M136.687012,243.004562 
	C136.153931,238.943695 135.259109,234.891037 135.166870,230.820190 
	C135.000427,223.474762 135.205643,216.114563 135.469757,208.768219 
	C135.616714,204.681213 135.941208,201.062271 140.845108,198.785217 
	C146.986786,195.933441 152.439957,191.595749 158.173950,187.874222 
	C158.717453,187.521454 159.451523,187.061813 159.578156,186.528564 
	C160.983124,180.612534 166.340820,180.776093 170.595505,179.012253 
	C176.286301,176.653076 181.757645,173.764572 188.011795,171.043488 
	C191.191940,171.092041 193.683502,171.200485 196.175079,171.308929 
	C186.223618,177.064468 176.267227,182.811554 166.322693,188.579025 
	C161.143829,191.582565 155.999268,194.645462 150.811157,197.632812 
	C148.976105,198.689453 147.130081,199.790085 145.163773,200.543762 
	C139.505737,202.712494 137.455032,206.432053 137.899567,212.669739 
	C138.525726,221.455780 138.032608,230.321564 137.665268,239.759140 
	C137.103989,241.244873 136.895493,242.124710 136.687012,243.004562 
z"/>
<path fill="#1E4157" opacity="1.000000" stroke="none" 
	d="
M196.536133,171.243301 
	C193.683502,171.200485 191.191940,171.092041 188.358307,170.991119 
	C188.448654,169.728577 188.881058,168.458496 189.731964,167.410950 
	C192.770035,166.760040 195.389603,165.886597 198.009171,165.013153 
	C199.307632,164.248459 200.606079,163.483765 202.350555,162.354340 
	C211.093948,156.920914 221.432999,154.801041 227.929932,144.527939 
	C222.218033,141.829498 217.109253,139.415970 212.000458,137.002441 
	C212.000458,137.002441 211.501877,136.996246 210.976715,136.746948 
	C208.967697,136.331558 207.483871,136.165466 206.000031,135.999390 
	C206.000031,135.999390 205.502106,135.996841 205.253189,135.996887 
	C204.347672,133.631012 203.691071,131.265091 203.021454,128.535431 
	C211.720123,132.599960 220.429581,137.032593 229.144730,141.453995 
	C232.043961,142.924835 234.957840,144.366821 238.777847,146.278931 
	C234.283020,149.259933 230.625595,151.880356 226.783783,154.194733 
	C217.503113,159.785599 208.141281,165.241943 198.791519,170.717316 
	C198.254410,171.031860 197.532898,171.031494 196.536133,171.243301 
z"/>
<path fill="#14384C" opacity="1.000000" stroke="none" 
	d="
M138.003998,426.954102 
	C138.302231,427.101807 138.554291,427.306396 139.019531,428.085938 
	C139.501984,429.464661 139.725082,430.325348 139.948181,431.186035 
	C117.720749,418.524475 95.364548,406.081818 73.316818,393.114746 
	C61.170246,385.970825 51.224213,376.491943 46.802841,362.466858 
	C46.625206,361.903381 46.797710,361.229492 47.187263,360.541626 
	C49.043247,361.983887 50.519043,363.491547 51.994843,364.999237 
	C52.003639,365.742401 52.012440,366.485565 52.065956,367.957825 
	C53.400928,369.792450 54.691181,370.897919 55.981430,372.003418 
	C57.165771,373.850403 58.350121,375.697418 59.836151,378.098419 
	C61.421646,379.768341 62.705460,380.884247 63.989273,382.000183 
	C65.752708,382.992706 67.516151,383.985260 69.653900,385.347534 
	C71.695602,387.460022 73.362999,389.202850 75.030396,390.945648 
	C76.462753,391.577454 77.895126,392.209259 79.853333,393.225342 
	C83.271774,395.003296 86.267090,396.220551 89.033478,397.831055 
	C93.449608,400.401917 97.713547,403.234192 102.041840,405.955933 
	C102.781822,405.968628 103.521805,405.981323 104.692719,406.306152 
	C105.746246,407.078674 106.368851,407.539093 106.991455,407.999512 
	C110.786163,410.232605 114.580872,412.465729 118.860573,415.152222 
	C120.826714,416.538208 122.260216,417.559753 123.799400,418.384003 
	C126.607750,419.887878 129.556717,421.142242 132.297729,422.754517 
	C134.322617,423.945587 136.110504,425.539612 138.003998,426.954102 
z"/>
<path fill="#062D43" opacity="1.000000" stroke="none" 
	d="
M45.079441,180.303848 
	C45.505203,179.367966 45.889088,178.835068 47.034653,177.244843 
	C47.034653,233.543350 47.034653,288.802582 46.729897,344.527039 
	C46.015816,344.973389 45.606499,344.954468 45.161438,344.472504 
	C45.086941,290.651276 45.048180,237.293091 45.009415,183.934921 
	C45.018799,182.858902 45.028179,181.782867 45.079441,180.303848 
z"/>
<path fill="#E4BE65" opacity="1.000000" stroke="none" 
	d="
M97.122818,112.119072 
	C100.340317,110.300224 103.577148,108.514618 106.771774,106.656448 
	C117.284546,100.541679 127.782028,94.400612 138.642746,88.496643 
	C138.997925,89.077919 138.995743,89.432205 138.728958,89.985306 
	C137.287964,91.423996 136.111603,92.663879 134.919998,93.896339 
	C134.904755,93.888924 134.870956,93.886314 134.522583,93.906937 
	C132.722824,94.864433 131.271439,95.801315 129.483749,96.788162 
	C128.093933,97.238060 127.040421,97.637985 125.642624,98.069382 
	C123.806923,99.327461 122.315498,100.554062 120.529457,101.829803 
	C119.844795,101.959251 119.454742,102.039566 118.711380,102.134262 
	C113.715408,105.001587 109.072769,107.854546 104.430122,110.707497 
	C104.595924,111.170570 104.761734,111.633644 104.927536,112.096710 
	C109.278397,111.027596 113.629250,109.958481 118.347282,108.896164 
	C119.447044,108.861984 120.179642,108.821014 121.325623,108.782372 
	C138.475647,106.083038 155.268356,106.445679 172.489380,107.890137 
	C174.264221,107.951614 175.630066,107.986427 177.255127,108.268654 
	C180.008118,109.350159 182.501877,110.184242 184.998535,111.322159 
	C185.003281,112.031265 185.005142,112.436546 185.007004,112.841820 
	C156.695816,105.947655 128.702698,107.568916 100.188873,115.956772 
	C98.650620,114.661407 97.886719,113.390244 97.122818,112.119072 
z"/>
<path fill="#14384C" opacity="1.000000" stroke="none" 
	d="
M230.851257,480.687164 
	C230.793167,481.554779 230.565094,482.121002 230.092529,482.881470 
	C217.114517,475.780731 204.375687,468.494934 191.649261,461.187561 
	C183.220535,456.347870 174.809586,451.477234 166.218582,446.057739 
	C166.371475,444.988983 166.696457,444.483002 167.021439,443.977020 
	C167.461182,443.982697 167.900909,443.988403 168.732422,444.307953 
	C169.754791,445.075531 170.385406,445.529236 171.016022,445.982941 
	C175.568466,447.386719 180.150284,448.704834 184.655045,450.247864 
	C185.964142,450.696259 187.552567,451.519012 188.152664,452.633392 
	C190.300034,456.621155 192.802444,458.726776 197.545242,455.895050 
	C196.903870,457.021729 196.262512,458.148407 195.262482,459.905151 
	C197.444443,459.660431 199.005234,459.485382 199.950989,459.379303 
	C202.602539,461.423279 204.918823,463.208832 207.785980,465.288940 
	C209.887238,466.389130 211.437637,467.194763 212.988037,468.000397 
	C213.130814,468.297211 213.330948,468.548279 213.876343,469.216431 
	C217.106827,471.119354 220.049454,472.559479 222.992065,473.999573 
	C227.460037,473.834747 228.713989,477.539673 230.851257,480.687164 
z"/>
<path fill="#E0AD24" opacity="1.000000" stroke="none" 
	d="
M276.992584,356.897614 
	C279.027771,355.722565 281.051422,354.527039 283.100189,353.376160 
	C290.675262,349.120911 298.258606,344.880402 306.372437,340.293976 
	C310.221832,338.628815 313.783112,337.704803 316.784698,335.866791 
	C319.804626,334.017548 322.267853,331.259186 324.975006,328.899200 
	C324.975006,328.899200 324.981110,328.970795 325.341095,328.996399 
	C328.265106,328.017883 330.900146,327.162354 333.378113,325.978210 
	C338.235779,323.656830 343.005890,321.152283 347.872925,319.043091 
	C347.956940,319.576508 347.980316,319.790375 347.826782,320.304688 
	C342.697998,323.588531 337.727112,326.541046 332.802979,329.569519 
	C330.653809,330.891357 328.428131,332.171417 326.540527,333.818176 
	C323.033325,336.877869 319.713806,339.724335 314.610565,340.176971 
	C311.085602,340.489563 307.459808,341.927185 304.300964,343.640106 
	C297.514313,347.320404 290.977570,351.466644 284.400970,355.523407 
	C283.483185,356.089508 282.260773,357.257233 282.298248,358.096527 
	C282.521484,363.096588 279.420074,363.117004 275.800598,363.054626 
	C273.511322,363.015137 271.210846,363.625305 268.997284,363.613586 
	C271.716980,361.154572 274.354797,359.026093 276.992584,356.897614 
z"/>
<path fill="#DFAF2B" opacity="1.000000" stroke="none" 
	d="
M184.995651,111.018326 
	C182.501877,110.184242 180.008118,109.350159 177.547348,108.012543 
	C180.918610,107.399185 184.503220,106.452492 187.545532,107.348030 
	C194.589676,109.421562 201.395340,112.325279 208.253601,115.005234 
	C217.072739,118.451439 225.848984,122.007454 234.641068,125.522751 
	C234.788055,125.581520 234.964890,125.696846 235.021774,125.830818 
	C237.425003,131.490631 243.142059,132.967300 247.728577,135.838348 
	C251.490952,138.193497 255.407150,140.301865 259.197632,142.613922 
	C260.231812,143.244705 261.058350,144.215927 261.600037,144.971497 
	C259.450195,144.620178 257.680542,144.328278 255.910873,144.036392 
	C248.038116,139.600235 240.154236,135.183624 232.300461,130.714127 
	C230.351074,129.604752 228.499130,128.324203 226.168930,126.650040 
	C213.411392,117.749580 199.317642,114.077255 184.995651,111.018326 
z"/>
<path fill="#D9AB21" opacity="1.000000" stroke="none" 
	d="
M339.882568,192.036713 
	C332.420319,188.052505 324.958038,184.068283 317.083191,179.638153 
	C315.751373,178.804871 314.832092,178.417542 313.912842,178.030197 
	C313.912842,178.030197 313.983429,178.021378 313.945068,177.705261 
	C312.617401,176.172546 311.490173,174.688095 310.007507,173.791245 
	C306.089020,171.420959 302.049103,169.243561 297.996765,167.104523 
	C293.364990,164.659668 288.667633,162.339035 283.947815,159.621979 
	C282.865082,158.318314 281.908478,157.256958 280.786957,156.415344 
	C277.892792,154.243484 274.925781,152.168732 271.983429,150.034775 
	C271.979004,150.014374 271.977325,149.974670 272.347778,149.993103 
	C274.153168,150.334854 275.588104,150.658157 277.013000,150.991837 
	C277.002960,151.002213 277.011414,150.976456 277.162018,151.258698 
	C278.210083,152.026230 279.107544,152.511536 280.300842,153.162109 
	C282.810333,154.765350 284.951172,156.333633 287.250275,157.618759 
	C297.137146,163.145325 307.071747,168.586472 316.982788,174.069931 
	C317.412292,174.307541 317.746277,174.725510 318.183228,174.940674 
	C321.005493,176.330399 323.876984,177.623947 326.663879,179.080109 
	C328.154266,179.858841 329.611450,180.775757 330.896851,181.853149 
	C332.451721,183.156418 333.584564,185.100693 335.297729,186.049301 
	C339.024231,188.112671 343.082184,189.574692 346.826874,191.609619 
	C347.848053,192.164536 348.237244,193.882446 348.563110,194.988159 
	C345.434052,193.952042 342.658295,192.994385 339.882568,192.036713 
z"/>
<path fill="#E0AF30" opacity="1.000000" stroke="none" 
	d="
M392.021698,391.816010 
	C383.818420,394.621246 375.748535,397.937103 367.383423,400.122955 
	C351.139984,404.367432 334.628448,406.571259 317.787354,404.068726 
	C312.460297,403.277161 307.105804,402.670135 301.341614,401.572998 
	C300.884064,400.521820 300.848785,399.876251 301.230011,399.148773 
	C302.764740,399.042725 303.882996,399.018555 305.195679,399.315857 
	C312.922394,400.734314 320.454620,401.831299 328.442505,402.938660 
	C331.939880,402.925262 334.981628,402.901489 338.379089,402.907440 
	C339.827698,402.634064 340.920624,402.330963 342.398560,401.968506 
	C344.849213,401.590485 346.914856,401.271820 349.379944,400.966675 
	C352.854279,399.990936 355.929169,399.001617 359.376709,398.009888 
	C360.494507,397.991394 361.239655,397.975250 362.396484,397.957947 
	C371.045715,396.785034 379.068787,394.985657 386.341705,390.021484 
	C387.109436,389.999146 387.548035,389.983032 388.354553,389.924805 
	C390.174805,389.600372 391.627167,389.318024 392.960876,389.312012 
	C392.568726,390.330872 392.295227,391.073425 392.021698,391.816010 
z"/>
<path fill="#DDAB22" opacity="1.000000" stroke="none" 
	d="
M410.097565,125.976929 
	C410.833069,126.256325 411.568573,126.535721 412.663757,127.309959 
	C414.899628,130.788132 416.941711,133.511826 421.080963,132.953476 
	C421.080963,132.953476 421.019012,132.984222 421.130005,133.186035 
	C421.521820,133.590317 421.802643,133.792770 422.083496,133.995224 
	C422.083496,133.995224 422.012360,133.983521 422.082123,134.292053 
	C423.126495,135.052780 424.101135,135.504990 425.075745,135.957184 
	C425.075745,135.957184 425.015442,135.987991 425.126709,136.190430 
	C425.519958,136.592255 425.801941,136.791626 426.083954,136.990997 
	C426.083954,136.990997 426.007721,136.991867 426.122925,137.190582 
	C426.520020,137.589645 426.801880,137.789963 427.083771,137.990280 
	C427.083771,137.990280 427.008698,137.991821 427.124268,138.190552 
	C427.521454,138.589737 427.803131,138.790176 428.084778,138.990601 
	C428.084778,138.990601 428.011902,138.987030 428.096436,139.183228 
	C428.330017,139.684341 428.548950,139.925873 428.837830,140.104034 
	C430.474701,142.161102 432.111603,144.218170 433.870789,146.998474 
	C434.682068,150.790802 435.371033,153.859879 436.039124,157.313446 
	C436.010529,158.465775 436.002808,159.233597 435.667114,159.950592 
	C434.542114,158.261917 433.745087,156.624084 432.956543,154.597458 
	C429.484711,145.793488 425.087372,138.224747 415.835693,134.876495 
	C414.546997,134.410110 412.798248,133.445663 412.482635,132.357788 
	C410.875946,126.819321 406.527039,126.222649 401.922150,126.011345 
	C395.741669,125.727753 395.296356,125.342148 394.956238,119.043304 
	C394.956238,119.043304 395.068817,118.931206 395.510132,118.918228 
	C396.996185,118.922623 398.040863,118.939987 399.085571,118.957352 
	C399.085571,118.957352 399.015259,118.969429 399.044006,119.291748 
	C402.747711,121.735016 406.422638,123.855972 410.097565,125.976929 
z"/>
<path fill="#EBCF74" opacity="1.000000" stroke="none" 
	d="
M441.025146,164.867920 
	C441.354126,166.713806 441.969025,168.559448 441.970551,170.405609 
	C442.017303,226.632172 442.003815,282.858795 441.705322,339.588684 
	C441.242371,340.115692 441.073730,340.139435 440.763306,340.097961 
	C440.621490,340.032684 440.327057,339.928741 440.431519,339.647949 
	C440.546204,338.971222 440.556488,338.575256 440.681396,337.745178 
	C440.756653,332.171814 440.717224,327.032654 440.711700,321.572937 
	C440.747498,320.822845 440.749420,320.393311 440.819763,319.503998 
	C440.875488,309.031738 440.862701,299.019287 440.864227,288.538086 
	C440.846130,266.705475 440.813782,245.341614 440.841492,223.515381 
	C440.890411,206.397522 440.879303,189.742050 440.910767,172.640808 
	C440.935242,170.119537 440.917175,168.044037 440.930481,165.693359 
	C440.982941,165.234756 441.004059,165.051346 441.025146,164.867920 
z"/>
<path fill="#3D5A66" opacity="1.000000" stroke="none" 
	d="
M44.665695,184.196136 
	C45.048180,237.293091 45.086941,290.651276 45.100540,344.904205 
	C45.040768,347.244934 45.006153,348.690918 44.971542,350.136871 
	C44.645012,348.944183 44.033897,347.751709 44.032875,346.558746 
	C43.987583,293.676483 43.994003,240.794159 44.011616,187.911850 
	C44.012001,186.760315 44.214020,185.608841 44.665695,184.196136 
z"/>
<path fill="#E4BE65" opacity="1.000000" stroke="none" 
	d="
M276.600220,356.949890 
	C274.354797,359.026093 271.716980,361.154572 268.770752,363.833344 
	C267.649384,364.596954 266.836456,364.810303 265.663605,365.053650 
	C261.176453,367.693817 257.049225,370.303955 252.778839,373.102112 
	C252.421005,373.524139 252.177246,373.722351 251.549774,373.911377 
	C249.823380,374.755798 248.451553,375.573517 245.907440,377.090057 
	C249.474289,378.800415 251.743378,379.888458 254.217224,381.035339 
	C254.421982,381.094177 254.838531,381.183746 254.929947,381.473267 
	C255.683319,382.529999 256.345276,383.297180 257.011688,384.357635 
	C257.013977,385.041962 257.011780,385.433044 257.009583,385.824097 
	C253.385880,383.747742 249.663559,381.822876 246.169037,379.548065 
	C243.260559,377.654724 243.257538,374.105347 246.376694,372.314880 
	C255.560593,367.043060 264.913757,362.065338 274.231964,357.030396 
	C274.745697,356.752838 275.542725,356.999542 276.600220,356.949890 
z"/>
<path fill="#133A4F" opacity="1.000000" stroke="none" 
	d="
M166.988129,443.595184 
	C166.696457,444.483002 166.371475,444.988983 165.998749,445.802063 
	C165.274094,445.697144 164.597183,445.285126 164.010651,444.464172 
	C163.992691,444.082886 163.884338,444.110596 163.776001,444.138306 
	C155.980499,439.988617 148.184998,435.838898 140.168839,431.437622 
	C139.725082,430.325348 139.501984,429.464661 139.147461,428.294922 
	C147.654770,428.827423 153.516861,434.996063 160.425140,439.154510 
	C162.620605,440.476044 164.779297,441.858673 166.988129,443.595184 
z"/>
<path fill="#E0AD24" opacity="1.000000" stroke="none" 
	d="
M201.975220,52.899872 
	C210.244949,48.162212 218.514679,43.424553 227.189911,38.260365 
	C227.871719,37.650547 228.088882,37.413132 228.246887,37.121586 
	C228.246887,37.121586 228.432861,36.990738 228.905151,37.059547 
	C230.279251,37.358269 231.181091,37.588177 231.885880,38.089016 
	C230.458847,39.565601 229.228836,40.771252 227.620422,41.998283 
	C223.826645,43.678516 220.411270,45.337364 216.646179,47.050064 
	C213.200165,49.064732 210.103897,51.025551 207.002899,52.991798 
	C206.998169,52.997227 206.984512,53.001816 206.678223,53.060905 
	C205.907822,53.739273 205.443726,54.358547 204.735489,55.228573 
	C202.152435,58.909092 198.752243,59.450508 195.190094,58.721077 
	C197.592987,56.611561 199.784103,54.755714 201.975220,52.899872 
z"/>
<path fill="#8A959A" opacity="1.000000" stroke="none" 
	d="
M387.355713,406.079529 
	C385.259460,406.504791 383.499542,406.756866 381.777527,407.167847 
	C373.940430,409.038452 366.113983,410.953766 357.883606,412.849304 
	C371.478271,408.129211 385.473114,403.412750 399.869080,398.561127 
	C398.255402,403.487793 392.703308,406.617249 387.355713,406.079529 
z"/>
<path fill="#EBCF74" opacity="1.000000" stroke="none" 
	d="
M392.389099,391.875336 
	C392.295227,391.073425 392.568726,390.330872 393.158539,389.119446 
	C393.985107,388.444061 394.495361,388.237488 395.362762,387.991211 
	C399.556335,385.700897 403.392792,383.450348 407.552551,381.141846 
	C409.273926,380.095093 410.671997,379.106354 412.380127,378.067932 
	C413.465973,377.373779 414.241821,376.729340 415.336578,376.053467 
	C416.076324,375.949219 416.497162,375.876373 417.237732,375.809570 
	C418.084625,375.236969 418.611786,374.658325 419.277710,373.907532 
	C419.604095,373.504730 419.824951,373.312256 420.425934,373.089783 
	C422.643311,371.530212 424.513794,370.038818 426.420532,368.549774 
	C426.456787,368.552124 426.470581,368.480774 426.963654,368.590546 
	C427.784363,368.778320 428.111969,368.856323 428.439606,368.934326 
	C421.849487,376.347870 413.915192,381.814484 404.799042,385.723724 
	C400.658478,387.499329 396.763092,389.846649 392.389099,391.875336 
z"/>
<path fill="#14384C" opacity="1.000000" stroke="none" 
	d="
M171.132843,119.894600 
	C169.387894,120.599075 167.602982,121.307281 165.407745,122.027496 
	C155.567078,122.536911 146.139572,123.298485 136.704971,123.399956 
	C133.002884,123.439766 129.284927,122.001450 125.204758,121.064697 
	C125.292931,120.595520 125.750542,120.297943 126.980270,120.015427 
	C142.193665,120.012611 156.634933,119.994736 171.076202,119.976868 
	C171.076202,119.976868 171.092880,119.898338 171.132843,119.894600 
z"/>
<path fill="#EBCF74" opacity="1.000000" stroke="none" 
	d="
M184.998535,111.322159 
	C199.317642,114.077255 213.411392,117.749580 225.842758,126.491585 
	C221.819885,125.219009 217.738129,123.489159 213.549652,122.075508 
	C204.327255,118.962845 195.050980,116.009789 185.401855,112.916702 
	C185.005142,112.436546 185.003281,112.031265 184.998535,111.322159 
z"/>
<path fill="#E0AF30" opacity="1.000000" stroke="none" 
	d="
M428.673126,368.839874 
	C428.111969,368.856323 427.784363,368.778320 426.955444,368.596863 
	C426.454132,368.493378 426.384277,368.547424 426.384277,368.547424 
	C424.513794,370.038818 422.643311,371.530212 420.441589,372.738861 
	C421.404022,370.641113 422.697662,368.826111 423.996765,367.007324 
	C424.002197,367.003601 424.012390,366.995483 424.351776,366.992828 
	C425.140808,366.938782 425.590454,366.887421 426.323303,366.708008 
	C427.388702,365.717560 428.170898,364.855194 429.208496,363.768066 
	C429.974701,362.028534 430.485535,360.513672 431.005402,358.585327 
	C431.091400,350.545471 436.816071,345.802124 440.327057,339.928741 
	C440.327057,339.928741 440.621490,340.032684 440.785400,340.365204 
	C440.968933,340.876495 440.988525,341.055237 441.008118,341.233948 
	C441.008118,341.233948 440.996246,341.612854 440.677582,342.043152 
	C439.236633,345.032410 438.014099,347.552826 437.012970,350.158295 
	C434.941193,355.549805 432.987244,360.986511 430.984802,366.404602 
	C430.292084,367.184906 429.599365,367.965179 428.673126,368.839874 
z"/>
<path fill="#E4B750" opacity="1.000000" stroke="none" 
	d="
M271.987854,150.055176 
	C274.925781,152.168732 277.892792,154.243484 280.786957,156.415344 
	C281.908478,157.256958 282.865082,158.318314 283.953796,159.913834 
	C284.002258,160.742279 283.993683,160.936432 283.985077,161.130585 
	C275.577972,156.411652 267.158936,151.713669 258.779785,146.945602 
	C257.801697,146.389023 257.043854,145.445343 256.047394,144.358749 
	C257.680542,144.328278 259.450195,144.620178 261.924133,145.114151 
	C265.748199,146.895889 268.868011,148.475525 271.987854,150.055176 
z"/>
<path fill="#3D5A66" opacity="1.000000" stroke="none" 
	d="
M356.522644,412.933441 
	C356.968689,413.646118 356.961853,414.373566 356.565186,415.494507 
	C355.094574,415.913055 354.013794,415.938110 352.932983,415.963196 
	C352.551147,415.937744 352.169342,415.912292 351.181061,415.684631 
	C347.020966,415.982422 343.467346,416.482483 339.913696,416.982513 
	C339.623138,417.066589 339.374786,417.219238 338.597870,417.654175 
	C331.724579,417.181763 325.422089,416.495758 319.119568,415.809753 
	C319.119568,415.809753 319.080109,415.413971 319.042542,415.218842 
	C331.359894,414.331879 343.714813,413.640045 356.522644,412.933441 
z"/>
<path fill="#8A959A" opacity="1.000000" stroke="none" 
	d="
M136.750641,243.376785 
	C136.895493,242.124710 137.103989,241.244873 137.626816,240.232788 
	C137.972565,269.087311 138.003983,298.074036 137.991333,327.529907 
	C137.561020,325.291473 137.174774,322.583954 136.804413,318.977600 
	C136.762878,296.719177 136.705444,275.359589 136.648026,254.000000 
	C136.699554,252.930374 136.751099,251.860748 136.815063,249.998566 
	C136.778732,248.137985 136.729950,247.069992 136.681168,246.001984 
	C136.725540,245.250992 136.769928,244.500000 136.750641,243.376785 
z"/>
<path fill="#E4B750" opacity="1.000000" stroke="none" 
	d="
M295.066650,59.587364 
	C290.318237,57.640484 285.523193,55.320793 280.075867,52.858128 
	C278.623260,52.454388 277.822876,52.193619 276.810547,51.693096 
	C275.441711,50.920109 274.284821,50.386883 272.935120,49.584160 
	C271.191559,48.523014 269.640839,47.731358 267.961639,46.731396 
	C267.631866,46.256466 267.378479,46.055599 266.870178,45.707561 
	C266.111816,45.331017 265.556305,45.167397 264.868958,44.702290 
	C264.503387,43.569057 264.269623,42.737309 264.035889,41.905560 
	C264.693451,41.948513 265.481140,41.769447 265.989349,42.067265 
	C275.685913,47.749489 285.349579,53.487839 295.066650,59.587364 
z"/>
<path fill="#EBCF74" opacity="1.000000" stroke="none" 
	d="
M284.128815,161.446381 
	C283.993683,160.936432 284.002258,160.742279 284.004791,160.256256 
	C288.667633,162.339035 293.364990,164.659668 297.996765,167.104523 
	C302.049103,169.243561 306.089020,171.420959 310.007507,173.791245 
	C311.490173,174.688095 312.617401,176.172546 313.944397,177.740845 
	C305.833832,173.748581 297.673370,169.427277 289.546692,165.043350 
	C287.727905,164.062210 286.027466,162.861694 284.128815,161.446381 
z"/>
<path fill="#EBCF74" opacity="1.000000" stroke="none" 
	d="
M257.329803,385.992126 
	C257.011780,385.433044 257.013977,385.041962 257.402466,384.355072 
	C258.830872,384.105743 259.872955,384.152222 261.066223,384.369141 
	C261.451721,384.740753 261.715210,384.890533 262.078552,385.318420 
	C263.453094,386.381226 264.756897,387.114563 266.413849,387.939240 
	C268.788177,388.821198 270.809357,389.611816 272.935486,390.724731 
	C274.690338,391.698212 276.340271,392.349396 278.305847,393.156158 
	C280.412842,393.867828 282.204254,394.423981 284.008026,395.310181 
	C284.026428,396.080231 284.032440,396.520203 284.011169,396.990021 
	C283.983887,397.019836 283.929596,397.079742 283.929596,397.079742 
	C274.200043,395.773621 265.735901,391.422058 257.329803,385.992126 
z"/>
<path fill="#E8C460" opacity="1.000000" stroke="none" 
	d="
M347.812256,318.723541 
	C343.005890,321.152283 338.235779,323.656830 333.378113,325.978210 
	C330.900146,327.162354 328.265106,328.017883 325.305298,328.993469 
	C331.692352,324.610199 338.490601,320.278992 345.235962,315.866943 
	C345.971771,315.385681 346.403015,314.438812 347.279663,313.353516 
	C347.583801,312.999115 348.033417,312.971893 348.254883,312.987518 
	C348.476349,313.003143 348.920013,313.028503 348.970276,313.286896 
	C349.065735,313.714874 349.110962,313.884430 349.122620,314.379913 
	C349.060059,315.141724 349.031036,315.577637 348.771484,316.217896 
	C348.298035,317.189362 348.055145,317.956451 347.812256,318.723541 
z"/>
<path fill="#133A4F" opacity="1.000000" stroke="none" 
	d="
M44.988174,350.477539 
	C45.006153,348.690918 45.040768,347.244934 45.136276,345.367279 
	C45.606499,344.954468 46.015816,344.973389 46.734795,344.995605 
	C47.849865,345.531219 49.423176,346.364166 49.349529,346.552277 
	C46.835068,352.974182 50.465668,358.442352 51.976414,364.612305 
	C50.519043,363.491547 49.043247,361.983887 47.331161,360.253815 
	C46.398186,356.960358 45.701500,353.889313 44.988174,350.477539 
z"/>
<path fill="#3D5A66" opacity="1.000000" stroke="none" 
	d="
M170.849518,119.647400 
	C156.634933,119.994736 142.193665,120.012611 127.264984,120.008560 
	C132.727844,119.307083 138.676056,118.097023 144.628860,118.073830 
	C153.291779,118.040077 161.958008,118.861275 170.849518,119.647400 
z"/>
<path fill="#E8C460" opacity="1.000000" stroke="none" 
	d="
M160.843658,75.978485 
	C169.287186,70.979836 177.730698,65.981186 186.586060,60.991974 
	C186.997925,61.001419 187.091553,61.106834 187.022034,61.441719 
	C185.883591,62.715065 184.908875,63.798321 183.728851,64.566032 
	C179.440231,67.356186 175.082870,70.040703 170.474884,72.815514 
	C169.741516,73.176987 169.284714,73.487999 168.453964,73.839676 
	C165.667892,74.579727 163.255783,75.279099 160.843658,75.978485 
z"/>
<path fill="#E0AD24" opacity="1.000000" stroke="none" 
	d="
M160.534241,76.110291 
	C163.255783,75.279099 165.667892,74.579727 168.453461,74.211594 
	C164.577744,80.241974 158.664078,82.886421 151.909241,83.513947 
	C152.666565,82.193626 153.328964,81.172264 153.991364,80.150894 
	C156.069183,78.847969 158.147003,77.545044 160.534241,76.110291 
z"/>
<path fill="#E4BE65" opacity="1.000000" stroke="none" 
	d="
M232.082916,37.818085 
	C231.181091,37.588177 230.279251,37.358269 229.015442,37.087143 
	C237.545639,31.901857 246.637848,33.499249 255.844284,36.707664 
	C255.924530,37.173878 255.727921,37.439068 255.390381,37.423477 
	C253.413605,37.572865 251.774368,37.737843 249.897125,37.587029 
	C245.002686,35.587128 240.363068,34.423084 235.488586,37.745399 
	C234.100723,37.788589 233.091827,37.803337 232.082916,37.818085 
z"/>
<path fill="#E3C69F" opacity="1.000000" stroke="none" 
	d="
M96.749252,112.107361 
	C97.886719,113.390244 98.650620,114.661407 99.796249,115.964767 
	C96.407661,117.550507 92.663437,119.174652 88.840904,120.586845 
	C88.217384,120.817192 87.248009,120.111366 86.438484,119.838249 
	C86.779259,118.881424 86.834671,117.474327 87.510429,117.046082 
	C90.364868,115.237129 93.404053,113.719688 96.749252,112.107361 
z"/>
<path fill="#E4BE65" opacity="1.000000" stroke="none" 
	d="
M431.301483,366.195526 
	C432.987244,360.986511 434.941193,355.549805 437.012970,350.158295 
	C438.014099,347.552826 439.236633,345.032410 440.603455,342.217621 
	C441.408600,350.292053 437.106628,356.852753 433.020905,363.494965 
	C432.521942,364.306152 432.084259,365.155029 431.301483,366.195526 
z"/>
<path fill="#E8C460" opacity="1.000000" stroke="none" 
	d="
M324.597809,328.947083 
	C322.267853,331.259186 319.804626,334.017548 316.784698,335.866791 
	C313.783112,337.704803 310.221832,338.628815 306.539917,339.973022 
	C312.189453,336.326630 318.205017,332.660797 324.597809,328.947083 
z"/>
<path fill="#FFD7A3" opacity="1.000000" stroke="none" 
	d="
M347.172852,242.032837 
	C347.125916,227.675659 347.078949,213.318466 347.376648,198.485870 
	C347.908325,197.988647 348.095306,197.966858 348.270813,198.249405 
	C348.291656,198.957672 348.324005,199.361588 348.234894,200.243729 
	C348.015747,214.505081 347.918030,228.288223 347.658447,242.061737 
	C347.496582,242.052124 347.172852,242.032837 347.172852,242.032837 
z"/>
<path fill="#E8C460" opacity="1.000000" stroke="none" 
	d="
M153.628479,80.202858 
	C153.328964,81.172264 152.666565,82.193626 151.610321,83.584396 
	C150.459442,84.282997 149.702393,84.612175 148.633575,85.066475 
	C146.214233,86.765167 144.106659,88.338737 141.669189,89.924301 
	C140.900269,89.968147 140.461273,90.000000 139.764587,89.972717 
	C139.335785,89.871223 139.164673,89.828850 138.993576,89.786484 
	C138.995743,89.432205 138.997925,89.077919 139.000626,88.457932 
	C143.755966,85.546417 148.510788,82.900620 153.628479,80.202858 
z"/>
<path fill="#EBAB17" opacity="1.000000" stroke="none" 
	d="
M264.023987,41.938213 
	C264.269623,42.737309 264.503387,43.569057 264.722870,45.016701 
	C262.863800,47.363571 261.019012,49.094540 258.112793,51.821411 
	C258.546478,48.064743 258.780853,46.034424 259.274902,43.860344 
	C260.007721,42.922844 260.480896,42.129105 261.278442,41.264446 
	C261.818665,41.144745 262.034546,41.095966 262.250427,41.047192 
	C262.250427,41.047192 262.523254,41.024170 262.823273,41.287964 
	C263.442230,41.696148 263.761200,41.840538 264.080139,41.984932 
	C264.080139,41.984932 264.012115,41.970867 264.023987,41.938213 
z"/>
<path fill="#FFFFBD" opacity="1.000000" stroke="none" 
	d="
M347.092834,242.492767 
	C347.172852,242.032837 347.496582,242.052124 347.718933,242.521332 
	C347.924316,255.659485 347.907318,268.328430 347.704132,281.014343 
	C347.517944,281.031342 347.144104,281.039307 347.144104,281.039307 
	C347.100342,268.343781 347.056580,255.648239 347.092834,242.492767 
z"/>
<path fill="#E4B750" opacity="1.000000" stroke="none" 
	d="
M436.060028,156.928970 
	C435.371033,153.859879 434.682068,150.790802 433.993256,147.306702 
	C438.444397,151.409622 440.767059,156.841354 440.674469,163.345154 
	C438.928894,161.318848 437.494476,159.123901 436.060028,156.928970 
z"/>
<path fill="#FFD7A3" opacity="1.000000" stroke="none" 
	d="
M347.063416,281.497070 
	C347.144104,281.039307 347.517944,281.031342 347.754761,281.479553 
	C348.005554,292.275818 348.019470,302.623840 348.033417,312.971893 
	C348.033417,312.971893 347.583801,312.999115 347.358643,312.995483 
	C347.083252,302.646149 347.032990,292.300476 347.063416,281.497070 
z"/>
<path fill="#E0AF30" opacity="1.000000" stroke="none" 
	d="
M436.039124,157.313446 
	C437.494476,159.123901 438.928894,161.318848 440.606323,163.763519 
	C440.849335,164.013260 440.995117,164.428772 441.010132,164.648346 
	C441.004059,165.051346 440.982941,165.234756 440.720032,165.945236 
	C440.299347,167.329376 440.120422,168.186478 439.635193,168.832275 
	C438.217590,165.747787 437.106323,162.874603 435.995056,160.001434 
	C436.002808,159.233597 436.010529,158.465775 436.039124,157.313446 
z"/>
<path fill="#E8C460" opacity="1.000000" stroke="none" 
	d="
M409.962677,125.650681 
	C406.422638,123.855972 402.747711,121.735016 399.052979,119.257217 
	C402.631409,121.041725 406.229584,123.183075 409.962677,125.650681 
z"/>
<path fill="#E8C460" opacity="1.000000" stroke="none" 
	d="
M201.595886,52.949669 
	C199.784103,54.755714 197.592987,56.611561 194.815292,58.742599 
	C193.245789,59.090858 192.262863,59.163925 191.185974,59.155312 
	C191.091980,59.073627 190.905472,58.908588 190.905472,58.908585 
	C194.342499,56.938877 197.779510,54.969170 201.595886,52.949669 
z"/>
<path fill="#D6B051" opacity="1.000000" stroke="none" 
	d="
M348.282257,197.945053 
	C348.095306,197.966858 347.908325,197.988647 347.439240,198.023148 
	C344.767059,196.286713 342.376923,194.537582 339.934692,192.412582 
	C342.658295,192.994385 345.434052,193.952042 348.587372,195.297180 
	C348.737396,196.438110 348.509827,197.191574 348.282257,197.945053 
z"/>
<path fill="#E4B750" opacity="1.000000" stroke="none" 
	d="
M420.956604,132.629730 
	C416.941711,133.511826 414.899628,130.788132 412.930664,127.469437 
	C415.502655,128.858047 418.167419,130.582016 420.956604,132.629730 
z"/>
<path fill="#EBCF74" opacity="1.000000" stroke="none" 
	d="
M292.927063,400.083008 
	C290.029724,399.311523 287.132385,398.540039 284.082336,397.424133 
	C283.929596,397.079742 283.983887,397.019836 284.418915,396.968384 
	C287.575043,397.933411 290.296112,398.949921 292.994995,399.995789 
	C292.972748,400.025177 292.927063,400.082977 292.927063,400.083008 
z"/>
<path fill="#EBCF74" opacity="1.000000" stroke="none" 
	d="
M300.813477,399.230682 
	C300.848785,399.876251 300.884064,400.521820 300.917725,401.490723 
	C298.365387,401.480042 295.814697,401.145996 293.095520,400.447449 
	C292.927063,400.082977 292.972748,400.025177 293.315186,399.954956 
	C294.448151,399.651337 295.238708,399.417908 296.430603,399.188446 
	C298.159149,399.205139 299.486298,399.217926 300.813477,399.230682 
z"/>
<path fill="#E4B750" opacity="1.000000" stroke="none" 
	d="
M262.078735,40.733040 
	C262.034546,41.095966 261.818665,41.144745 260.925446,41.153667 
	C258.741394,39.888893 257.234650,38.663979 255.727921,37.439068 
	C255.727921,37.439068 255.924530,37.173878 256.036011,37.052181 
	C258.067352,38.093285 259.987213,39.256084 262.078735,40.733040 
z"/>
<path fill="#E8C460" opacity="1.000000" stroke="none" 
	d="
M354.959351,93.624878 
	C352.775452,92.839615 350.463684,91.722641 348.082092,90.259903 
	C350.285370,91.040474 352.558411,92.166809 354.959351,93.624878 
z"/>
<path fill="#E8C460" opacity="1.000000" stroke="none" 
	d="
M347.947418,89.639893 
	C346.183411,89.232140 344.288940,88.487206 342.208313,87.458748 
	C343.953796,87.884384 345.885345,88.593544 347.947418,89.639893 
z"/>
<path fill="#E8C460" opacity="1.000000" stroke="none" 
	d="
M186.950623,60.949142 
	C188.002899,60.251663 189.102493,59.606457 190.553772,58.934921 
	C190.905472,58.908588 191.091980,59.073627 191.207062,59.360760 
	C191.322159,59.647892 191.335724,60.068470 191.012390,60.257961 
	C189.489883,60.667248 188.290726,60.887039 187.091553,61.106834 
	C187.091553,61.106834 186.997925,61.001419 186.950623,60.949142 
z"/>
<path fill="#E4B750" opacity="1.000000" stroke="none" 
	d="
M297.961060,61.659500 
	C297.112061,61.504486 296.131989,61.045784 295.093140,60.237206 
	C295.966248,60.376827 296.898102,60.866322 297.961060,61.659500 
z"/>
<path fill="#EBCF74" opacity="1.000000" stroke="none" 
	d="
M314.023132,178.329254 
	C314.832092,178.417542 315.751373,178.804871 316.734528,179.504730 
	C315.910095,179.420929 315.021759,179.024628 314.023132,178.329254 
z"/>
<path fill="#E4B750" opacity="1.000000" stroke="none" 
	d="
M424.960876,135.646912 
	C424.101135,135.504990 423.126495,135.052780 422.089294,134.256714 
	C422.966431,134.387451 423.906219,134.862045 424.960876,135.646912 
z"/>
<path fill="#1D4052" opacity="1.000000" stroke="none" 
	d="
M139.890564,329.655090 
	C139.580429,330.233795 139.095978,330.573792 138.309769,330.955505 
	C138.007996,330.997253 138.000031,330.999695 137.999786,330.745422 
	C137.997223,330.323883 137.994873,330.156616 137.992538,329.989319 
	C138.002396,329.785034 138.012253,329.580750 138.048248,329.069427 
	C138.621674,328.980408 139.168961,329.198395 139.890564,329.655090 
z"/>
<path fill="#E8C460" opacity="1.000000" stroke="none" 
	d="
M398.921204,118.622406 
	C398.040863,118.939987 396.996185,118.922623 395.566315,118.862068 
	C395.181152,118.818878 395.133942,118.390762 395.109375,118.177574 
	C396.308807,118.072075 397.532837,118.179771 398.921204,118.622406 
z"/>
<path fill="#E8C460" opacity="1.000000" stroke="none" 
	d="
M356.894714,94.785286 
	C356.344818,94.894829 355.818512,94.658257 355.144043,94.166763 
	C355.636719,94.087624 356.277496,94.263405 356.894714,94.785286 
z"/>
<path fill="#E4B750" opacity="1.000000" stroke="none" 
	d="
M299.960327,62.684807 
	C299.516876,62.783585 298.942749,62.587639 298.177979,62.146267 
	C298.601471,62.063923 299.215546,62.227005 299.960327,62.684807 
z"/>
<path fill="#E4B750" opacity="1.000000" stroke="none" 
	d="
M427.013611,137.720215 
	C426.801880,137.789963 426.520020,137.589645 426.123230,137.152466 
	C426.320007,137.093796 426.631744,137.271957 427.013611,137.720215 
z"/>
<path fill="#E4B750" opacity="1.000000" stroke="none" 
	d="
M428.888977,139.817505 
	C428.548950,139.925873 428.330017,139.684341 428.099426,139.146851 
	C428.325287,139.119858 428.632690,139.325424 428.888977,139.817505 
z"/>
<path fill="#E4BE65" opacity="1.000000" stroke="none" 
	d="
M227.930206,37.091038 
	C228.088882,37.413132 227.871719,37.650547 227.387558,37.958656 
	C227.324326,37.742481 227.468918,37.401485 227.930206,37.091038 
z"/>
<path fill="#E4B750" opacity="1.000000" stroke="none" 
	d="
M428.014465,138.720535 
	C427.803131,138.790176 427.521454,138.589737 427.124268,138.152985 
	C427.320526,138.094620 427.632355,138.272552 428.014465,138.720535 
z"/>
<path fill="#E4BE65" opacity="1.000000" stroke="none" 
	d="
M441.283142,341.130188 
	C440.988525,341.055237 440.968933,340.876495 440.927216,340.430481 
	C441.073730,340.139435 441.242371,340.115692 441.664001,340.057129 
	C441.797394,340.356995 441.677795,340.691711 441.283142,341.130188 
z"/>
<path fill="#E4B750" opacity="1.000000" stroke="none" 
	d="
M426.013306,136.721405 
	C425.801941,136.791626 425.519958,136.592255 425.122864,136.156799 
	C425.319427,136.097748 425.631012,136.274780 426.013306,136.721405 
z"/>
<path fill="#E4B750" opacity="1.000000" stroke="none" 
	d="
M263.985535,41.692734 
	C263.761200,41.840538 263.442230,41.696148 262.944946,41.350754 
	C263.141357,41.233349 263.516144,41.316944 263.985535,41.692734 
z"/>
<path fill="#E4B750" opacity="1.000000" stroke="none" 
	d="
M422.010925,133.726257 
	C421.802643,133.792770 421.521820,133.590317 421.124146,133.151962 
	C421.317688,133.096466 421.628021,133.276871 422.010925,133.726257 
z"/>
<path fill="#0C4159" opacity="1.000000" stroke="none" 
	d="
M212.016968,137.368805 
	C217.109253,139.415970 222.218033,141.829498 227.929932,144.527939 
	C221.432999,154.801041 211.093948,156.920914 202.413422,162.007187 
	C201.469482,161.228256 200.271484,159.936783 200.446350,159.711685 
	C202.212540,157.437820 203.828400,154.700989 206.199463,153.306213 
	C214.231415,148.581421 215.701477,145.210159 212.016968,137.368805 
z"/>
<path fill="#1D4052" opacity="1.000000" stroke="none" 
	d="
M136.305923,254.161957 
	C136.705444,275.359589 136.762878,296.719177 136.740906,318.541931 
	C136.111404,317.756348 135.088623,316.510101 135.082031,315.258514 
	C134.980637,296.010803 134.996353,276.762360 135.052246,257.514282 
	C135.055344,256.449951 135.646423,255.387329 136.305923,254.161957 
z"/>
<path fill="#14384C" opacity="1.000000" stroke="none" 
	d="
M318.831665,416.091980 
	C325.422089,416.495758 331.724579,417.181763 338.472839,417.836090 
	C337.971069,418.787384 337.071228,420.566986 336.068542,420.626953 
	C328.286926,421.092224 320.347443,422.268524 313.073914,417.378418 
	C314.822998,416.814026 316.683380,416.594147 318.831665,416.091980 
z"/>
<path fill="#133A4F" opacity="1.000000" stroke="none" 
	d="
M102.024857,405.576569 
	C97.713547,403.234192 93.449608,400.401917 89.033478,397.831055 
	C86.267090,396.220551 83.271774,395.003296 80.187279,393.300354 
	C82.255974,388.193878 81.788460,388.704712 85.754189,392.334137 
	C89.893524,396.122528 95.105988,398.722870 99.735176,402.003662 
	C100.741653,402.716949 101.263069,404.114685 102.024857,405.576569 
z"/>
<path fill="#0C4159" opacity="1.000000" stroke="none" 
	d="
M137.991425,426.587799 
	C136.110504,425.539612 134.322617,423.945587 132.297729,422.754517 
	C129.556717,421.142242 126.607750,419.887878 123.799400,418.384003 
	C122.260216,417.559753 120.826714,416.538208 119.174515,415.296509 
	C120.155342,414.721893 121.480919,413.955505 122.426910,414.283600 
	C125.412659,415.319122 128.645691,416.273682 131.051544,418.181854 
	C133.773682,420.340942 135.704147,423.498260 137.991425,426.587799 
z"/>
<path fill="#133A4F" opacity="1.000000" stroke="none" 
	d="
M74.976707,390.634460 
	C73.362999,389.202850 71.695602,387.460022 70.013794,385.359894 
	C70.309929,384.458618 70.811478,383.409607 70.903206,383.444275 
	C73.492851,384.423615 76.041161,385.512268 78.308334,387.502930 
	C76.951088,387.357391 75.593849,387.211853 73.739807,387.013031 
	C74.225761,388.372559 74.574387,389.347931 74.976707,390.634460 
z"/>
<path fill="#0C4159" opacity="1.000000" stroke="none" 
	d="
M197.758209,164.775360 
	C195.389603,165.886597 192.770035,166.760040 190.074829,167.319809 
	C192.501862,166.183289 195.004547,165.360443 197.758209,164.775360 
z"/>
<path fill="#153E51" opacity="1.000000" stroke="none" 
	d="
M222.919098,473.662323 
	C220.049454,472.559479 217.106827,471.119354 214.082214,469.344482 
	C217.934570,468.427582 220.652496,470.338928 222.919098,473.662323 
z"/>
<path fill="#062D43" opacity="1.000000" stroke="none" 
	d="
M340.322266,416.995667 
	C343.467346,416.482483 347.020966,415.982422 350.893982,415.690491 
	C347.719177,416.268677 344.225037,416.638733 340.322266,416.995667 
z"/>
<path fill="#062D43" opacity="1.000000" stroke="none" 
	d="
M352.992096,416.281982 
	C354.013794,415.938110 355.094574,415.913055 356.577911,415.857666 
	C356.984802,416.609894 356.989166,417.392456 356.992065,418.562378 
	C355.677490,418.166779 354.364349,417.383759 352.992096,416.281982 
z"/>
<path fill="#133A4F" opacity="1.000000" stroke="none" 
	d="
M55.936001,371.665314 
	C54.691181,370.897919 53.400928,369.792450 52.069538,368.329437 
	C53.315792,369.090363 54.603180,370.208771 55.936001,371.665314 
z"/>
<path fill="#133A4F" opacity="1.000000" stroke="none" 
	d="
M63.977783,381.643494 
	C62.705460,380.884247 61.421646,379.768341 60.068279,378.329895 
	C61.321247,379.100494 62.643768,380.193634 63.977783,381.643494 
z"/>
<path fill="#153E51" opacity="1.000000" stroke="none" 
	d="
M212.912903,467.660889 
	C211.437637,467.194763 209.887238,466.389130 208.170380,465.295593 
	C209.615189,465.778900 211.226471,466.550171 212.912903,467.660889 
z"/>
<path fill="#0C4159" opacity="1.000000" stroke="none" 
	d="
M206.174850,136.291931 
	C207.483871,136.165466 208.967697,136.331558 210.727386,136.745239 
	C209.452057,136.856705 207.900864,136.720581 206.174850,136.291931 
z"/>
<path fill="#1D4052" opacity="1.000000" stroke="none" 
	d="
M136.388763,246.105255 
	C136.729950,247.069992 136.778732,248.137985 136.751251,249.601196 
	C136.482117,248.733765 136.289246,247.471146 136.388763,246.105255 
z"/>
<path fill="#133A4F" opacity="1.000000" stroke="none" 
	d="
M106.933159,407.691650 
	C106.368851,407.539093 105.746246,407.078674 105.062729,406.311646 
	C105.626160,406.464661 106.250511,406.924225 106.933159,407.691650 
z"/>
<path fill="#133A4F" opacity="1.000000" stroke="none" 
	d="
M170.948639,445.677826 
	C170.385406,445.529236 169.754791,445.075531 169.062195,444.313965 
	C169.627213,444.461639 170.254227,444.917175 170.948639,445.677826 
z"/>
<path fill="#153E51" opacity="1.000000" stroke="none" 
	d="
M137.858902,330.091614 
	C137.994873,330.156616 137.997223,330.323883 138.000854,330.742004 
	C137.909866,330.726532 137.817566,330.460236 137.858902,330.091614 
z"/>
<path fill="#E9A803" opacity="1.000000" stroke="none" 
	d="
M191.335724,60.068470 
	C191.335724,60.068470 191.322159,59.647892 191.301056,59.442444 
	C192.262863,59.163925 193.245789,59.090858 194.603500,58.996269 
	C198.752243,59.450508 202.152435,58.909092 205.046356,55.176392 
	C206.062424,54.249577 206.523468,53.625694 206.984512,53.001816 
	C206.984512,53.001816 206.998169,52.997227 207.427429,52.996952 
	C212.346390,53.194801 216.542587,52.945869 216.995911,46.996212 
	C220.411270,45.337364 223.826645,43.678516 227.997223,41.994320 
	C235.480087,42.243130 242.215622,43.087715 248.719009,40.131767 
	C249.837006,39.623611 251.790009,40.697872 253.260864,41.283371 
	C255.228241,42.066525 257.101532,43.086071 259.015259,44.004105 
	C258.780853,46.034424 258.546478,48.064743 258.112793,51.821411 
	C261.019012,49.094540 262.863800,47.363571 264.854706,45.318192 
	C265.556305,45.167397 266.111816,45.331017 266.979126,45.931549 
	C267.494934,46.646172 267.761322,46.836586 268.090118,46.939705 
	C269.640839,47.731358 271.191559,48.523014 272.940979,49.935577 
	C274.433990,51.015274 275.728241,51.474064 277.022522,51.932854 
	C277.822876,52.193619 278.623260,52.454388 279.713013,52.845848 
	C281.950226,55.106724 283.537170,58.337601 285.926544,59.120884 
	C289.972626,60.447281 292.906982,62.520798 295.421570,65.774803 
	C296.380371,67.015556 297.973175,67.933151 299.460083,68.571846 
	C308.736053,72.556305 318.085999,76.369019 327.344452,80.392799 
	C328.417664,80.859215 329.113373,82.246780 329.920380,83.258148 
	C330.728760,84.271217 331.321320,86.112022 332.242279,86.275932 
	C339.564606,87.579079 344.252014,93.592865 350.877960,96.305504 
	C359.634766,99.890518 367.822479,104.867844 376.240143,109.274689 
	C376.964783,109.654068 377.764404,110.112640 378.216827,110.754562 
	C382.109467,116.277443 387.478302,118.863625 394.550293,119.007988 
	C395.296356,125.342148 395.741669,125.727753 401.922150,126.011345 
	C406.527039,126.222649 410.875946,126.819321 412.482635,132.357788 
	C412.798248,133.445663 414.546997,134.410110 415.835693,134.876495 
	C425.087372,138.224747 429.484711,145.793488 432.605591,154.711243 
	C432.734436,161.145279 432.722290,167.179199 433.907837,172.967850 
	C434.568054,176.191467 437.222412,179.006683 438.986816,182.440582 
	C439.292542,186.230927 439.589508,189.586609 439.537415,193.053406 
	C438.467407,194.745941 437.188385,196.305084 437.124268,197.912704 
	C436.875061,204.162079 436.956421,210.427338 437.013855,216.685791 
	C437.339050,252.134079 437.692963,287.582123 438.028870,323.489685 
	C438.016022,325.906281 437.699738,327.926483 438.079590,329.805969 
	C438.654053,332.648560 439.713409,335.393097 440.566742,338.179321 
	C440.556488,338.575256 440.546204,338.971222 440.431519,339.647949 
	C436.816071,345.802124 431.091400,350.545471 430.684814,358.657745 
	C429.887756,360.760040 429.420410,362.376404 428.953064,363.992798 
	C428.170898,364.855194 427.388702,365.717560 426.252075,366.451111 
	C425.269257,366.546692 424.640808,366.771088 424.012390,366.995483 
	C424.012390,366.995483 424.002197,367.003601 423.632019,367.012512 
	C420.498352,369.376434 417.734894,371.731506 414.646667,374.079590 
	C413.561005,374.389557 412.800110,374.706543 411.685730,375.066223 
	C409.223389,377.074646 407.114502,379.040375 404.638062,381.019592 
	C403.537018,381.043121 402.803497,381.053162 401.665833,381.046814 
	C395.110138,381.444489 390.960693,384.832703 387.986633,389.966919 
	C387.548035,389.983032 387.109436,389.999146 386.063843,389.767731 
	C383.194489,388.435669 380.777924,387.583801 378.706635,386.210938 
	C375.760895,384.258423 373.928955,385.010162 372.180847,388.058167 
	C373.908600,389.237122 375.420105,390.268494 377.988647,392.021179 
	C374.512299,392.848694 372.101532,393.151642 369.910156,394.012756 
	C367.173950,395.087982 364.618347,396.622742 361.984802,397.959106 
	C361.239655,397.975250 360.494507,397.991394 359.128510,397.790802 
	C356.754883,397.578094 354.907410,397.941498 353.269318,397.510101 
	C350.014832,396.653046 349.053833,398.119751 348.980469,400.953125 
	C346.914856,401.271820 344.849213,401.590485 342.041260,401.957275 
	C340.207092,402.296173 339.115234,402.586975 338.023407,402.877747 
	C334.981628,402.901489 331.939880,402.925262 328.145081,402.702148 
	C323.565796,401.122894 319.702240,399.887299 315.923828,398.430878 
	C312.152252,396.977051 308.473694,395.460236 305.001221,398.994385 
	C303.882996,399.018555 302.764740,399.042725 301.229980,399.148773 
	C299.486298,399.217926 298.159149,399.205139 296.329102,398.902588 
	C295.545013,398.082764 295.263763,397.552765 294.904266,396.678955 
	C291.411316,394.633240 287.996613,392.931427 284.583405,391.226746 
	C286.126495,386.340881 285.281555,385.116760 280.101044,385.018311 
	C275.954865,384.939514 271.806000,385.002411 266.281708,385.002411 
	C269.031403,382.411591 270.569153,380.962708 272.106873,379.513824 
	C271.844849,379.044250 271.582794,378.574646 271.320770,378.105072 
	C267.205139,379.411957 263.089508,380.718811 258.623718,381.977966 
	C257.128540,381.681396 255.983536,381.432556 254.838531,381.183716 
	C254.838531,381.183746 254.421982,381.094177 254.149506,380.710938 
	C253.219482,378.180023 252.561920,376.032379 251.904358,373.884735 
	C252.177246,373.722351 252.421005,373.524139 253.168335,373.120270 
	C259.031036,372.208557 263.168579,369.613007 266.023560,365.023621 
	C266.836456,364.810303 267.649384,364.596954 268.688843,364.163879 
	C271.210846,363.625305 273.511322,363.015137 275.800598,363.054626 
	C279.420074,363.117004 282.521484,363.096588 282.298248,358.096527 
	C282.260773,357.257233 283.483185,356.089508 284.400970,355.523407 
	C290.977570,351.466644 297.514313,347.320404 304.300964,343.640106 
	C307.459808,341.927185 311.085602,340.489563 314.610565,340.176971 
	C319.713806,339.724335 323.033325,336.877869 326.540527,333.818176 
	C328.428131,332.171417 330.653809,330.891357 332.802979,329.569519 
	C337.727112,326.541046 342.697998,323.588531 348.059662,320.109009 
	C348.646973,318.413086 348.824493,317.213318 349.002014,316.013519 
	C349.031036,315.577637 349.060059,315.141724 349.485962,314.280884 
	C350.572174,312.828430 351.848602,311.801971 351.850464,310.773193 
	C351.859100,306.003052 351.696289,301.213440 351.205963,296.470978 
	C351.010132,294.576782 349.812317,292.786133 349.064697,290.483032 
	C349.086975,273.703705 349.115234,257.389679 349.498138,240.915833 
	C350.212555,240.055374 350.881500,239.356720 350.885986,238.653809 
	C350.962189,226.791275 351.001343,214.927780 350.888428,203.065994 
	C350.878448,202.018524 349.755829,200.981628 348.953918,199.885712 
	C348.757782,199.831604 348.356323,199.765503 348.356323,199.765503 
	C348.324005,199.361588 348.291656,198.957672 348.270813,198.249405 
	C348.509827,197.191574 348.737396,196.438110 348.940704,195.375626 
	C348.237244,193.882446 347.848053,192.164536 346.826874,191.609619 
	C343.082184,189.574692 339.024231,188.112671 335.297729,186.049301 
	C333.584564,185.100693 332.451721,183.156418 330.896851,181.853149 
	C329.611450,180.775757 328.154266,179.858841 326.663879,179.080109 
	C323.876984,177.623947 321.005493,176.330399 318.183228,174.940674 
	C317.746277,174.725510 317.412292,174.307541 316.982788,174.069931 
	C307.071747,168.586472 297.137146,163.145325 287.250275,157.618759 
	C284.951172,156.333633 282.810333,154.765350 280.223969,152.832184 
	C278.904633,151.883484 277.958038,151.429962 277.011414,150.976456 
	C277.011414,150.976456 277.002960,151.002213 276.930298,150.661896 
	C275.342255,148.638840 273.864960,146.420410 271.977325,149.974670 
	C271.977325,149.974670 271.979004,150.014374 271.983429,150.034775 
	C268.868011,148.475525 265.748199,146.895889 262.304260,145.173584 
	C261.058350,144.215927 260.231812,143.244705 259.197632,142.613922 
	C255.407150,140.301865 251.490952,138.193497 247.728577,135.838348 
	C243.142059,132.967300 237.425003,131.490631 235.021774,125.830818 
	C234.964890,125.696846 234.788055,125.581520 234.641068,125.522751 
	C225.848984,122.007454 217.072739,118.451439 208.253601,115.005234 
	C201.395340,112.325279 194.589676,109.421562 187.545532,107.348030 
	C184.503220,106.452492 180.918610,107.399185 177.288132,107.765129 
	C175.630066,107.986427 174.264221,107.951614 172.375839,107.565308 
	C169.266434,105.898743 166.744324,103.609909 164.081787,103.432861 
	C150.750015,102.546356 137.367188,102.135475 124.408417,106.419884 
	C123.123383,106.844742 122.072037,107.976425 120.912231,108.780052 
	C120.179642,108.821014 119.447044,108.861984 118.140198,108.655090 
	C113.630592,105.254265 119.697212,104.485535 119.064697,102.119888 
	C119.454742,102.039566 119.844795,101.959251 120.886154,101.852264 
	C123.020622,100.563042 124.503769,99.300476 125.986908,98.037910 
	C127.040421,97.637985 128.093933,97.238060 129.837494,96.827698 
	C131.975342,95.840279 133.423157,94.863297 134.870956,93.886322 
	C134.870956,93.886314 134.904755,93.888924 135.286713,93.918701 
	C137.119858,92.642937 138.571060,91.337387 140.022278,90.031845 
	C140.461273,90.000000 140.900269,89.968147 141.751114,90.278290 
	C146.794662,92.916435 148.830597,91.211723 148.945343,84.941360 
	C149.702393,84.612175 150.459442,84.282997 151.515411,83.883362 
	C158.664078,82.886421 164.577744,80.241974 168.827423,74.170929 
	C169.284714,73.487999 169.741516,73.176987 170.900330,72.884056 
	C178.004471,70.252579 184.470245,67.737709 190.727295,64.781097 
	C191.499893,64.416023 191.160065,61.696796 191.335724,60.068470 
M362.810577,109.252029 
	C360.310089,109.164398 356.834656,107.808510 356.389923,111.511826 
	C356.174286,113.307518 358.165741,116.007118 359.908630,117.207535 
	C361.447449,118.267418 364.028717,117.813698 366.149750,118.028297 
	C365.789093,116.067886 365.538788,114.077591 365.019409,112.160149 
	C364.773682,111.252914 364.013153,110.485115 362.810577,109.252029 
M255.513214,130.414978 
	C254.839310,131.430328 253.372116,132.746201 253.623901,133.410904 
	C254.971924,136.969604 258.170471,137.470230 261.390381,136.859192 
	C262.634277,136.623123 264.621948,135.098175 264.584808,134.232864 
	C264.434265,130.728455 261.933441,129.684311 258.707672,129.996567 
	C257.890930,130.075623 257.069427,130.105362 255.513214,130.414978 
z"/>
<path fill="#DFAF2B" opacity="1.000000" stroke="none" 
	d="
M121.325623,108.782372 
	C122.072037,107.976425 123.123383,106.844742 124.408417,106.419884 
	C137.367188,102.135475 150.750015,102.546356 164.081787,103.432861 
	C166.744324,103.609909 169.266434,105.898743 171.966843,107.538651 
	C155.268356,106.445679 138.475647,106.083038 121.325623,108.782372 
z"/>
<path fill="#DFAF2B" opacity="1.000000" stroke="none" 
	d="
M118.711380,102.134262 
	C119.697212,104.485535 113.630592,105.254265 117.773026,108.648300 
	C113.629250,109.958481 109.278397,111.027596 104.927536,112.096710 
	C104.761734,111.633644 104.595924,111.170570 104.430122,110.707497 
	C109.072769,107.854546 113.715408,105.001587 118.711380,102.134262 
z"/>
<path fill="#DDAB22" opacity="1.000000" stroke="none" 
	d="
M139.764587,89.972717 
	C138.571060,91.337387 137.119858,92.642937 135.301941,93.926117 
	C136.111603,92.663879 137.287964,91.423996 138.728958,89.985306 
	C139.164673,89.828850 139.335785,89.871223 139.764587,89.972717 
z"/>
<path fill="#E0AF30" opacity="1.000000" stroke="none" 
	d="
M125.642624,98.069382 
	C124.503769,99.300476 123.020622,100.563042 121.180771,101.803131 
	C122.315498,100.554062 123.806923,99.327461 125.642624,98.069382 
z"/>
<path fill="#E0AF30" opacity="1.000000" stroke="none" 
	d="
M134.522583,93.906937 
	C133.423157,94.863297 131.975342,95.840279 130.173798,96.777725 
	C131.271439,95.801315 132.722824,94.864433 134.522583,93.906937 
z"/>
<path fill="#D9AB21" opacity="1.000000" stroke="none" 
	d="
M348.771484,316.217896 
	C348.824493,317.213318 348.646973,318.413086 348.236572,319.808563 
	C347.980316,319.790375 347.956940,319.576508 347.872925,319.043091 
	C348.055145,317.956451 348.298035,317.189362 348.771484,316.217896 
z"/>
<path fill="#DDAB22" opacity="1.000000" stroke="none" 
	d="
M272.347778,149.993103 
	C273.864960,146.420410 275.342255,148.638840 276.940338,150.651520 
	C275.588104,150.658157 274.153168,150.334854 272.347778,149.993103 
z"/>
<path fill="#DDAB22" opacity="1.000000" stroke="none" 
	d="
M277.162018,151.258698 
	C277.958038,151.429962 278.904633,151.883484 279.928131,152.666931 
	C279.107544,152.511536 278.210083,152.026230 277.162018,151.258698 
z"/>
<path fill="#E5A910" opacity="1.000000" stroke="none" 
	d="
M362.396484,397.957947 
	C364.618347,396.622742 367.173950,395.087982 369.910156,394.012756 
	C372.101532,393.151642 374.512299,392.848694 377.988647,392.021179 
	C375.420105,390.268494 373.908600,389.237122 372.180847,388.058167 
	C373.928955,385.010162 375.760895,384.258423 378.706635,386.210938 
	C380.777924,387.583801 383.194489,388.435669 385.734741,389.773926 
	C379.068787,394.985657 371.045715,396.785034 362.396484,397.957947 
z"/>
<path fill="#E5A910" opacity="1.000000" stroke="none" 
	d="
M305.195679,399.315857 
	C308.473694,395.460236 312.152252,396.977051 315.923828,398.430878 
	C319.702240,399.887299 323.565796,401.122894 327.689453,402.691772 
	C320.454620,401.831299 312.922394,400.734314 305.195679,399.315857 
z"/>
<path fill="#E5A910" opacity="1.000000" stroke="none" 
	d="
M388.354553,389.924805 
	C390.960693,384.832703 395.110138,381.444489 401.581879,381.401672 
	C400.929901,382.506073 399.888763,383.164978 399.001373,383.989410 
	C397.614746,385.277710 396.332245,386.678070 395.005615,388.030945 
	C394.495361,388.237488 393.985107,388.444061 393.277161,388.843140 
	C391.627167,389.318024 390.174805,389.600372 388.354553,389.924805 
z"/>
<path fill="#E5A910" opacity="1.000000" stroke="none" 
	d="
M349.379944,400.966675 
	C349.053833,398.119751 350.014832,396.653046 353.269318,397.510101 
	C354.907410,397.941498 356.754883,397.578094 358.755859,397.793213 
	C355.929169,399.001617 352.854279,399.990936 349.379944,400.966675 
z"/>
<path fill="#E5A910" opacity="1.000000" stroke="none" 
	d="
M338.379089,402.907471 
	C339.115234,402.586975 340.207092,402.296173 341.656250,402.016602 
	C340.920624,402.330963 339.827698,402.634064 338.379089,402.907471 
z"/>
<path fill="#E5A910" opacity="1.000000" stroke="none" 
	d="
M438.978088,182.005951 
	C437.222412,179.006683 434.568054,176.191467 433.907837,172.967850 
	C432.722290,167.179199 432.734436,161.145279 432.597076,155.100037 
	C433.745087,156.624084 434.542114,158.261917 435.667084,159.950592 
	C437.106323,162.874603 438.217590,165.747787 439.649109,169.225769 
	C439.970673,170.883453 439.971954,171.936356 439.721741,173.301727 
	C439.306213,176.411469 439.142151,179.208710 438.978088,182.005951 
z"/>
<path fill="#EBAB17" opacity="1.000000" stroke="none" 
	d="
M438.037048,323.030212 
	C437.692963,287.582123 437.339050,252.134079 437.013855,216.685791 
	C436.956421,210.427338 436.875061,204.162079 437.124268,197.912704 
	C437.188385,196.305084 438.467407,194.745941 439.571289,193.527451 
	C439.965973,197.692596 439.891693,201.497482 440.008881,205.296448 
	C440.200989,211.525558 440.517395,217.750854 440.781403,223.977753 
	C440.813782,245.341614 440.846130,266.705475 440.633942,288.875061 
	C440.510040,299.775116 440.630707,309.869446 440.751343,319.963776 
	C440.749420,320.393311 440.747498,320.822845 440.438171,321.650116 
	C439.432861,322.375305 438.734955,322.702759 438.037048,323.030212 
z"/>
<path fill="#E0AF30" opacity="1.000000" stroke="none" 
	d="
M440.841431,223.515381 
	C440.517395,217.750854 440.200989,211.525558 440.008881,205.296448 
	C439.891693,201.497482 439.965973,197.692596 439.920349,193.416351 
	C439.589508,189.586609 439.292542,186.230927 438.986816,182.440582 
	C439.142151,179.208710 439.306213,176.411469 439.946503,173.318054 
	C440.422729,173.021881 440.868195,173.086563 440.868195,173.086563 
	C440.879303,189.742050 440.890411,206.397522 440.841431,223.515381 
z"/>
<path fill="#E0AF30" opacity="1.000000" stroke="none" 
	d="
M438.028870,323.489655 
	C438.734955,322.702759 439.432861,322.375305 440.404297,321.970642 
	C440.717224,327.032654 440.756653,332.171814 440.681396,337.745178 
	C439.713409,335.393097 438.654053,332.648560 438.079590,329.805969 
	C437.699738,327.926483 438.016022,325.906281 438.028870,323.489655 
z"/>
<path fill="#E0AF30" opacity="1.000000" stroke="none" 
	d="
M440.819824,319.503998 
	C440.630707,309.869446 440.510040,299.775116 440.619659,289.343811 
	C440.862701,299.019287 440.875488,309.031738 440.819824,319.503998 
z"/>
<path fill="#E4B750" opacity="1.000000" stroke="none" 
	d="
M440.910767,172.640808 
	C440.868195,173.086563 440.422729,173.021881 440.197998,173.005554 
	C439.971954,171.936356 439.970673,170.883453 439.955444,169.437073 
	C440.120422,168.186478 440.299347,167.329376 440.688660,166.220398 
	C440.917175,168.044037 440.935242,170.119537 440.910767,172.640808 
z"/>
<path fill="#E0AF30" opacity="1.000000" stroke="none" 
	d="
M265.663605,365.053650 
	C263.168579,369.613007 259.031036,372.208557 253.311539,372.932251 
	C257.049225,370.303955 261.176453,367.693817 265.663605,365.053650 
z"/>
<path fill="#E0AF30" opacity="1.000000" stroke="none" 
	d="
M251.549774,373.911377 
	C252.561920,376.032379 253.219482,378.180023 253.944763,380.652100 
	C251.743378,379.888458 249.474289,378.800415 245.907440,377.090057 
	C248.451553,375.573517 249.823380,374.755798 251.549774,373.911377 
z"/>
<path fill="#E0AF30" opacity="1.000000" stroke="none" 
	d="
M254.929947,381.473267 
	C255.983536,381.432556 257.128540,381.681396 258.809265,382.206421 
	C259.868378,383.054657 260.391724,383.626678 260.915039,384.198730 
	C259.872955,384.152222 258.830872,384.105743 257.398010,384.061798 
	C256.345276,383.297180 255.683319,382.529999 254.929947,381.473267 
z"/>
<path fill="#14384C" opacity="1.000000" stroke="none" 
	d="
M163.820465,444.143494 
	C163.884338,444.110596 163.992691,444.082886 163.987366,444.146484 
	C163.873672,444.237793 163.864929,444.148682 163.820465,444.143494 
z"/>
<path fill="#E5A910" opacity="1.000000" stroke="none" 
	d="
M259.274872,43.860344 
	C257.101532,43.086071 255.228241,42.066525 253.260864,41.283371 
	C251.790009,40.697872 249.837006,39.623611 248.719009,40.131767 
	C242.215622,43.087715 235.480087,42.243130 228.375641,41.972939 
	C229.228836,40.771252 230.458847,39.565601 231.885880,38.089020 
	C233.091827,37.803337 234.100723,37.788589 235.751282,38.042942 
	C240.973679,38.175636 245.554413,38.039227 250.135147,37.902817 
	C251.774368,37.737843 253.413605,37.572865 255.390381,37.423477 
	C257.234650,38.663979 258.741394,39.888893 260.601135,41.224586 
	C260.480896,42.129105 260.007721,42.922844 259.274872,43.860344 
z"/>
<path fill="#E5A910" opacity="1.000000" stroke="none" 
	d="
M216.646179,47.050064 
	C216.542587,52.945869 212.346390,53.194801 207.432159,52.991524 
	C210.103897,51.025551 213.200165,49.064732 216.646179,47.050064 
z"/>
<path fill="#E5A910" opacity="1.000000" stroke="none" 
	d="
M206.678223,53.060905 
	C206.523468,53.625694 206.062424,54.249577 205.290497,54.925644 
	C205.443726,54.358547 205.907822,53.739273 206.678223,53.060905 
z"/>
<path fill="#E0AF30" opacity="1.000000" stroke="none" 
	d="
M395.362732,387.991180 
	C396.332245,386.678070 397.614746,385.277710 399.001373,383.989410 
	C399.888763,383.164978 400.929901,382.506073 401.986023,381.418060 
	C402.803497,381.053162 403.537018,381.043121 405.009247,381.033264 
	C406.241730,381.088898 406.735504,381.144379 407.229248,381.199829 
	C403.392792,383.450348 399.556335,385.700897 395.362732,387.991180 
z"/>
<path fill="#E5A910" opacity="1.000000" stroke="none" 
	d="
M407.552551,381.141846 
	C406.735504,381.144379 406.241730,381.088898 405.376831,381.019775 
	C407.114502,379.040375 409.223389,377.074646 411.679718,375.451569 
	C412.041504,376.568695 412.055786,377.343140 412.070099,378.117615 
	C410.671997,379.106354 409.273926,380.095093 407.552551,381.141846 
z"/>
<path fill="#E5A910" opacity="1.000000" stroke="none" 
	d="
M414.971405,374.086548 
	C417.734894,371.731506 420.498352,369.376434 423.626587,367.016235 
	C422.697662,368.826111 421.404022,370.641113 420.094727,372.807007 
	C419.824951,373.312256 419.604095,373.504730 418.962280,373.929077 
	C417.978058,374.683044 417.448059,375.243286 416.918030,375.803528 
	C416.497162,375.876373 416.076324,375.949219 415.333099,375.718994 
	C414.997620,374.972809 414.984497,374.529694 414.971405,374.086548 
z"/>
<path fill="#E0AF30" opacity="1.000000" stroke="none" 
	d="
M414.646637,374.079559 
	C414.984497,374.529694 414.997620,374.972809 415.014221,375.750427 
	C414.241821,376.729340 413.465973,377.373779 412.380127,378.067932 
	C412.055786,377.343140 412.041504,376.568695 412.033203,375.408875 
	C412.800110,374.706543 413.561005,374.389557 414.646637,374.079559 
z"/>
<path fill="#E0AF30" opacity="1.000000" stroke="none" 
	d="
M417.237732,375.809570 
	C417.448059,375.243286 417.978058,374.683044 418.823486,374.101227 
	C418.611786,374.658325 418.084625,375.236969 417.237732,375.809570 
z"/>
<path fill="#E9A803" opacity="1.000000" stroke="none" 
	d="
M426.420532,368.549774 
	C426.384277,368.547424 426.454132,368.493378 426.462341,368.487061 
	C426.470581,368.480774 426.456787,368.552124 426.420532,368.549774 
z"/>
<path fill="#E5A910" opacity="1.000000" stroke="none" 
	d="
M429.208496,363.768066 
	C429.420410,362.376404 429.887756,360.760040 430.675720,359.071228 
	C430.485535,360.513672 429.974701,362.028534 429.208496,363.768066 
z"/>
<path fill="#E5A910" opacity="1.000000" stroke="none" 
	d="
M424.351776,366.992828 
	C424.640808,366.771088 425.269257,366.546692 425.968872,366.579193 
	C425.590454,366.887421 425.140808,366.938782 424.351776,366.992828 
z"/>
<path fill="#DDAB22" opacity="1.000000" stroke="none" 
	d="
M276.810547,51.693096 
	C275.728241,51.474064 274.433990,51.015274 273.133820,50.205070 
	C274.284821,50.386883 275.441711,50.920109 276.810547,51.693096 
z"/>
<path fill="#EBAB17" opacity="1.000000" stroke="none" 
	d="
M267.961639,46.731400 
	C267.761322,46.836586 267.494934,46.646172 267.181976,46.144470 
	C267.378479,46.055599 267.631866,46.256466 267.961639,46.731400 
z"/>
<path fill="#E5A910" opacity="1.000000" stroke="none" 
	d="
M261.066223,384.369141 
	C260.391724,383.626678 259.868378,383.054657 259.159454,382.254150 
	C263.089508,380.718811 267.205139,379.411957 271.320770,378.105072 
	C271.582794,378.574646 271.844849,379.044250 272.106873,379.513824 
	C270.569153,380.962708 269.031403,382.411591 266.281708,385.002411 
	C271.806000,385.002411 275.954865,384.939514 280.101044,385.018311 
	C285.281555,385.116760 286.126495,386.340881 284.583405,391.226746 
	C287.996613,392.931427 291.411316,394.633240 294.531189,396.618225 
	C290.822784,396.260956 287.409210,395.620544 283.995636,394.980133 
	C282.204254,394.423981 280.412842,393.867828 278.240784,392.824677 
	C276.472137,390.942627 275.831818,387.604492 272.830566,390.402466 
	C270.809357,389.611816 268.788177,388.821198 266.339539,387.607056 
	C264.610687,386.452057 263.309265,385.720490 262.007874,384.988953 
	C261.715210,384.890533 261.451721,384.740753 261.066223,384.369141 
z"/>
<path fill="#E0AF30" opacity="1.000000" stroke="none" 
	d="
M284.008026,395.310181 
	C287.409210,395.620544 290.822784,396.260956 294.609436,396.962097 
	C295.263763,397.552765 295.545013,398.082764 295.927734,398.898621 
	C295.238708,399.417908 294.448151,399.651337 293.337402,399.925598 
	C290.296112,398.949921 287.575043,397.933411 284.446167,396.938538 
	C284.032440,396.520203 284.026428,396.080231 284.008026,395.310181 
z"/>
<path fill="#E0AF30" opacity="1.000000" stroke="none" 
	d="
M272.935486,390.724731 
	C275.831818,387.604492 276.472137,390.942627 277.925171,392.669128 
	C276.340271,392.349396 274.690338,391.698212 272.935486,390.724731 
z"/>
<path fill="#E0AF30" opacity="1.000000" stroke="none" 
	d="
M262.078552,385.318420 
	C263.309265,385.720490 264.610687,386.452057 265.986389,387.515747 
	C264.756897,387.114563 263.453094,386.381226 262.078552,385.318420 
z"/>
<path fill="#D6B051" opacity="1.000000" stroke="none" 
	d="
M349.143494,241.075668 
	C349.115234,257.389679 349.086975,273.703705 349.027161,290.955811 
	C348.970428,298.938782 348.945221,305.983643 348.920013,313.028503 
	C348.920013,313.028503 348.476349,313.003143 348.254883,312.987518 
	C348.019470,302.623840 348.005554,292.275818 347.940979,281.462585 
	C347.907318,268.328430 347.924316,255.659485 347.880798,242.530945 
	C347.918030,228.288223 348.015747,214.505081 348.234894,200.243729 
	C348.356323,199.765503 348.757782,199.831604 348.900574,200.357895 
	C349.076752,214.281342 349.110107,227.678513 349.143494,241.075668 
z"/>
<path fill="#D9AB21" opacity="1.000000" stroke="none" 
	d="
M348.970276,313.286896 
	C348.945221,305.983643 348.970428,298.938782 349.033142,291.421143 
	C349.812317,292.786133 351.010132,294.576782 351.205963,296.470978 
	C351.696289,301.213440 351.859100,306.003052 351.850464,310.773193 
	C351.848602,311.801971 350.572174,312.828430 349.519531,313.954956 
	C349.110962,313.884430 349.065735,313.714874 348.970276,313.286896 
z"/>
<path fill="#E0AD24" opacity="1.000000" stroke="none" 
	d="
M191.012390,60.257961 
	C191.160065,61.696796 191.499893,64.416023 190.727295,64.781097 
	C184.470245,67.737709 178.004471,70.252579 171.176880,72.833603 
	C175.082870,70.040703 179.440231,67.356186 183.728851,64.566032 
	C184.908875,63.798321 185.883591,62.715065 187.022034,61.441719 
	C188.290726,60.887039 189.489883,60.667248 191.012390,60.257961 
z"/>
<path fill="#E0AD24" opacity="1.000000" stroke="none" 
	d="
M249.897125,37.587029 
	C245.554413,38.039227 240.973679,38.175636 236.130249,38.014503 
	C240.363068,34.423084 245.002686,35.587128 249.897125,37.587029 
z"/>
<path fill="#DDAB22" opacity="1.000000" stroke="none" 
	d="
M148.633575,85.066483 
	C148.830597,91.211723 146.794662,92.916435 142.081024,90.266296 
	C144.106659,88.338737 146.214233,86.765167 148.633575,85.066483 
z"/>
<path fill="#D9AB21" opacity="1.000000" stroke="none" 
	d="
M349.498138,240.915833 
	C349.110107,227.678513 349.076752,214.281342 349.096680,200.411987 
	C349.755829,200.981628 350.878448,202.018524 350.888428,203.065994 
	C351.001343,214.927780 350.962189,226.791275 350.885986,238.653809 
	C350.881500,239.356720 350.212555,240.055374 349.498138,240.915833 
z"/>
<path fill="#E5A910" opacity="1.000000" stroke="none" 
	d="
M363.148193,109.453087 
	C364.013153,110.485115 364.773682,111.252914 365.019409,112.160149 
	C365.538788,114.077591 365.789093,116.067886 366.149719,118.028297 
	C364.028717,117.813698 361.447449,118.267418 359.908630,117.207535 
	C358.165741,116.007118 356.174286,113.307518 356.389923,111.511826 
	C356.834656,107.808510 360.310089,109.164398 363.148193,109.453087 
z"/>
<path fill="#E5A910" opacity="1.000000" stroke="none" 
	d="
M255.881653,130.286377 
	C257.069427,130.105362 257.890930,130.075623 258.707672,129.996567 
	C261.933441,129.684311 264.434265,130.728455 264.584808,134.232864 
	C264.621948,135.098175 262.634277,136.623123 261.390381,136.859192 
	C258.170471,137.470230 254.971924,136.969604 253.623901,133.410904 
	C253.372116,132.746201 254.839310,131.430328 255.881653,130.286377 
z"/>
</svg>